<?xml version="1.0" standalone="no"?>
<!DOCTYPE svg PUBLIC "-//W3C//DTD SVG 20010904//EN"
 "http://www.w3.org/TR/2001/REC-SVG-20010904/DTD/svg10.dtd">
<svg version="1.0" xmlns="http://www.w3.org/2000/svg"
 width="1512.000000pt" height="756.000000pt" viewBox="0 0 1512.000000 756.000000"
 preserveAspectRatio="xMidYMid meet">

<g transform="translate(0.000000,756.000000) scale(0.100000,-0.100000)"
fill="#000000" stroke="none">
<path d="M0 4689 c0 -1755 4 -2868 9 -2864 17 10 24 -18 8 -30 -15 -11 -17
-38 -17 -218 l0 -205 25 2 c13 2 34 -4 46 -12 21 -15 21 -16 4 -29 -11 -7 -17
-13 -14 -14 26 -5 84 -9 181 -14 64 -3 124 -7 132 -10 9 -3 23 -7 32 -10 8 -3
12 -9 9 -15 -4 -6 -84 -10 -211 -10 l-204 0 0 -504 0 -505 47 -3 c59 -4 55
-23 -5 -23 l-42 0 0 -112 0 -113 7560 0 7560 0 0 794 0 795 -35 -15 c-43 -18
-55 -18 -55 0 0 8 20 27 45 43 l45 28 -1 190 c-1 187 -2 189 -14 115 -16 -99
-93 -330 -112 -337 -33 -13 -40 19 -52 222 -6 110 -16 261 -22 335 -10 137 -1
238 25 285 9 17 12 8 16 -50 l5 -70 30 4 c16 1 51 14 77 27 38 19 48 30 48 49
0 14 -4 25 -10 25 -5 0 -10 6 -10 14 0 8 -21 21 -50 31 -54 18 -67 29 -48 41
25 16 50 11 60 -12 10 -22 41 -37 52 -26 3 3 6 1145 6 2539 l0 2533 -7560 0
-7560 0 0 -2871z m7409 1165 c-18 -22 -34 -1 -19 27 11 20 13 21 22 5 7 -12 6
-22 -3 -32z m71 15 c0 -10 -7 -19 -15 -19 -16 0 -19 9 -9 34 8 20 24 11 24
-15z m60 6 c0 -15 -18 -30 -27 -22 -2 3 -2 15 2 26 7 23 25 19 25 -4z m57 -9
c-4 -9 -11 -16 -17 -16 -11 0 -14 33 -3 43 11 11 26 -10 20 -27z m-542 -16
c-7 -11 -35 -14 -35 -4 0 3 5 15 11 26 10 19 12 20 21 5 5 -10 6 -22 3 -27z
m121 4 c-5 -13 -10 -14 -18 -6 -6 6 -8 18 -4 28 5 13 10 14 18 6 6 -6 8 -18 4
-28z m57 -1 c-3 -7 -9 -13 -14 -13 -11 0 -12 34 -2 43 9 10 22 -13 16 -30z
m57 3 c-14 -14 -24 0 -16 21 6 15 8 15 16 3 6 -9 5 -19 0 -24z m70 -3 c0 -7
-7 -13 -15 -13 -15 0 -21 31 -8 43 8 8 23 -12 23 -30z m290 3 c-14 -14 -22 -2
-14 18 5 14 9 15 15 4 4 -7 4 -17 -1 -22z m64 17 c8 -21 -10 -41 -24 -27 -11
11 -3 44 10 44 4 0 11 -8 14 -17z m51 -12 c-9 -16 -25 -3 -18 15 4 10 9 12 15
6 6 -6 7 -15 3 -21z m57 -3 c-6 -6 -15 -9 -18 -5 -4 3 -4 14 0 23 5 13 9 15
18 6 9 -9 9 -15 0 -24z m61 18 c6 -15 -16 -40 -25 -30 -8 7 2 44 12 44 4 0 10
-6 13 -14z m57 -17 c0 -11 -7 -19 -16 -19 -11 0 -14 5 -10 16 3 9 6 20 6 25 0
6 5 7 10 4 6 -3 10 -15 10 -26z m52 -11 c-18 -18 -33 1 -21 24 11 20 12 20 21
4 7 -12 7 -21 0 -28z m-1059 18 c6 -14 -19 -44 -28 -34 -7 6 6 48 15 48 4 0
10 -6 13 -14z m60 0 c6 -15 -1 -26 -15 -26 -4 0 -8 9 -8 20 0 23 15 27 23 6z
m114 -18 c-15 -9 -19 -4 -11 16 5 14 9 15 15 5 5 -8 3 -17 -4 -21z m953 13 c0
-20 -17 -37 -27 -28 -7 8 7 47 18 47 5 0 9 -9 9 -19z m50 -15 c-14 -14 -24 0
-16 21 6 15 8 15 16 3 6 -9 5 -19 0 -24z m60 14 c0 -11 -6 -20 -14 -20 -9 0
-12 7 -9 20 3 11 9 20 14 20 5 0 9 -9 9 -20z m110 -17 c0 -7 -7 -13 -15 -13
-16 0 -19 9 -9 35 5 13 8 14 15 3 5 -7 9 -19 9 -25z m-1595 -13 c-3 -6 -10
-10 -16 -10 -10 0 -12 33 -2 44 9 9 26 -22 18 -34z m60 0 c-3 -6 -10 -10 -16
-10 -10 0 -12 33 -2 44 9 9 26 -22 18 -34z m65 15 c0 -15 -18 -30 -27 -22 -2
3 -2 15 2 26 7 23 25 19 25 -4z m1520 -6 c0 -11 -7 -19 -16 -19 -11 0 -14 5
-10 16 3 9 6 20 6 25 0 6 5 7 10 4 6 -3 10 -15 10 -26z m-102 -1 c-4 -27 -28
-36 -28 -10 0 20 8 32 22 32 5 0 8 -10 6 -22z m160 -1 c2 -11 -3 -17 -16 -17
-15 0 -19 5 -15 20 6 24 26 21 31 -3z m33 -20 c-13 -13 -15 1 -4 30 7 17 8 17
11 -1 2 -10 -1 -23 -7 -29z m-1861 13 c0 -11 -7 -20 -15 -20 -15 0 -21 21 -8
33 12 13 23 7 23 -13z m63 6 c6 -16 -1 -26 -19 -26 -7 0 -10 8 -7 20 6 23 19
26 26 6z m1859 -18 c-6 -6 -15 -9 -18 -5 -4 3 -4 14 0 23 5 13 9 15 18 6 9 -9
9 -15 0 -24z m58 13 c0 -20 -17 -37 -27 -28 -7 8 7 47 18 47 5 0 9 -9 9 -19z
m60 -12 c0 -10 -6 -19 -14 -19 -9 0 -12 8 -8 25 5 28 22 24 22 -6z m-2240 -4
c0 -15 -18 -30 -27 -22 -2 3 -2 15 2 26 7 23 25 19 25 -4z m68 7 c2 -7 -4 -15
-13 -18 -20 -8 -27 -1 -19 20 7 18 25 17 32 -2z m-135 -6 c6 -15 -1 -26 -15
-26 -4 0 -8 9 -8 20 0 23 15 27 23 6z m2359 -18 c-6 -6 -15 -9 -18 -5 -4 3 -4
14 0 23 5 13 9 15 18 6 9 -9 9 -15 0 -24z m58 7 c0 -16 -6 -25 -15 -25 -18 0
-18 5 -5 31 14 26 20 24 20 -6z m39 -16 c-18 -11 -22 -5 -14 22 7 20 8 21 17
4 8 -12 7 -20 -3 -26z m-2593 -11 c-15 -10 -19 -3 -10 24 7 22 7 22 14 3 4
-11 3 -23 -4 -27z m66 10 c-9 -9 -12 -7 -12 12 0 19 3 21 12 12 9 -9 9 -15 0
-24z m-122 -4 c0 -8 -7 -14 -15 -14 -17 0 -18 2 -9 24 7 18 24 12 24 -10z
m2710 11 c0 -8 -7 -15 -15 -15 -9 0 -12 6 -9 15 4 8 10 15 15 15 5 0 9 -7 9
-15z m50 -4 c0 -20 -13 -35 -23 -25 -7 8 4 44 14 44 5 0 9 -9 9 -19z m-2827
-5 c6 -15 -1 -26 -15 -26 -4 0 -8 9 -8 20 0 23 15 27 23 6z m2877 -6 c0 -11
-4 -20 -10 -20 -5 0 -10 9 -10 20 0 11 5 20 10 20 6 0 10 -9 10 -20z m50 0 c0
-11 -4 -20 -10 -20 -5 0 -10 9 -10 20 0 11 5 20 10 20 6 0 10 -9 10 -20z
m-1216 -47 c30 -32 107 -127 171 -212 143 -190 166 -231 130 -231 -17 0 -80
74 -208 244 -103 137 -185 228 -198 220 -5 -3 -9 -56 -9 -119 0 -65 -4 -116
-10 -120 -6 -4 -10 43 -10 134 l0 141 40 0 c35 0 45 -6 94 -57z m1266 37 c0
-11 -7 -20 -15 -20 -18 0 -19 12 -3 28 16 16 18 15 18 -8z m46 -17 c-10 -10
-19 5 -10 18 6 11 8 11 12 0 2 -7 1 -15 -2 -18z m62 10 c-2 -9 -8 -18 -15 -20
-7 -3 -9 3 -6 16 6 25 26 28 21 4z m-3302 -19 c-4 -9 -9 -15 -11 -12 -3 3 -3
13 1 22 4 9 9 15 11 12 3 -3 3 -13 -1 -22z m1204 16 c0 -5 -5 -10 -11 -10 -5
0 -7 5 -4 10 3 6 8 10 11 10 2 0 4 -4 4 -10z m1005 -27 c-12 -17 -20 -23 -23
-15 -4 14 28 56 36 47 3 -2 -3 -17 -13 -32z m1195 12 c0 -15 -18 -30 -27 -22
-2 3 -2 15 2 26 7 23 25 19 25 -4z m-3468 -17 c-6 -6 -14 -9 -17 -6 -3 3 -3
13 1 22 5 12 10 14 17 7 8 -8 8 -14 -1 -23z m860 -20 c26 -29 78 -93 116 -143
42 -54 76 -89 86 -89 11 1 15 -4 12 -15 -4 -10 28 -63 84 -141 84 -117 110
-163 97 -176 -13 -13 -56 31 -146 151 -54 72 -119 160 -145 197 -57 82 -153
188 -171 188 -14 0 -24 -69 -26 -185 -1 -44 -4 -93 -8 -110 -6 -28 -7 -27 -14
19 -9 62 -9 340 0 349 3 4 20 7 37 7 24 0 40 -11 78 -52z m2558 32 c0 -11 -7
-20 -15 -20 -13 0 -14 4 -5 20 6 11 13 20 15 20 3 0 5 -9 5 -20z m91 -23 c-15
-15 -24 -2 -16 24 7 20 8 21 17 5 7 -12 7 -21 -1 -29z m-3637 17 c7 -19 -13
-49 -25 -37 -10 10 0 53 11 53 4 0 11 -7 14 -16z m66 2 c0 -16 -18 -31 -27
-22 -8 8 5 36 17 36 5 0 10 -6 10 -14z m3619 -27 c-17 -10 -24 4 -14 29 6 16
7 16 17 -2 8 -14 7 -21 -3 -27z m-3758 -12 c-15 -15 -24 -2 -16 24 7 20 8 21
17 5 7 -12 7 -21 -1 -29z m3805 6 c-11 -11 -19 6 -11 24 8 17 8 17 12 0 3 -10
2 -21 -1 -24z m50 -5 c-14 -9 -20 7 -11 30 6 15 8 15 15 -3 4 -12 3 -23 -4
-27z m-1127 -16 c7 -12 12 -8 27 17 24 41 65 43 83 5 l12 -26 25 25 c27 27 70
30 85 6 16 -25 9 -70 -16 -107 -30 -43 -31 -61 -7 -88 26 -30 42 -62 42 -84 0
-11 5 -20 11 -20 6 0 8 11 5 28 -11 50 -16 254 -6 272 6 11 17 16 33 13 32 -6
47 -51 47 -139 0 -84 8 -98 48 -92 25 3 32 0 36 -16 4 -14 -1 -27 -14 -38 -26
-21 -25 -30 3 -26 19 3 22 10 25 52 2 27 0 56 -3 65 -6 14 -7 14 -16 -1 -6
-10 -16 -18 -23 -18 -9 0 -15 25 -19 87 -3 48 -3 93 0 100 7 19 83 18 83 -2 0
-17 25 -20 35 -5 3 6 16 8 28 6 12 -3 42 -7 67 -10 55 -6 81 -15 97 -35 8 -11
12 -12 13 -3 0 13 80 18 80 4 0 -4 23 -7 50 -6 28 1 53 -3 56 -8 7 -11 12 -93
13 -210 1 -45 5 -78 11 -78 6 0 10 18 10 40 0 22 5 40 10 40 6 0 10 -6 9 -12
-1 -7 -1 -30 0 -50 1 -30 4 -36 17 -31 13 5 15 22 13 102 -2 53 -5 107 -9 121
-9 40 -23 6 -22 -56 0 -30 -4 -57 -9 -60 -5 -3 -9 21 -10 53 0 32 -2 67 -4 78
-10 47 3 56 67 46 11 -1 9 -329 -1 -336 -16 -9 -73 17 -67 31 10 27 -15 14
-32 -16 -24 -41 -36 -38 -53 16 -16 51 -32 62 -38 24 -1 -14 -8 -28 -13 -31
-16 -10 -48 2 -48 17 0 8 -9 14 -20 14 -11 0 -29 14 -42 30 -23 32 -38 26 -38
-17 0 -20 -5 -23 -45 -23 -25 0 -45 3 -45 8 -10 190 -14 206 -46 221 l-26 11
4 -107 3 -108 -35 -3 c-19 -2 -63 -1 -97 3 -51 5 -62 10 -67 27 -4 18 -7 19
-21 8 -11 -9 -14 -22 -9 -44 l6 -31 -31 29 c-17 17 -31 26 -31 21 0 -5 -10 2
-21 14 -19 21 -23 21 -31 7 -11 -20 -87 -22 -93 -3 -2 6 -6 51 -9 98 -4 78
-24 155 -44 169 -5 3 -19 22 -32 44 l-23 39 27 -18 c14 -10 30 -24 35 -33z
m-2863 2 c-3 -8 -10 -12 -16 -9 -7 4 -6 14 2 28 12 24 24 8 14 -19z m4044 16
c0 -11 -7 -20 -15 -20 -17 0 -18 2 -9 24 9 23 24 20 24 -4z m50 -5 c0 -7 -7
-15 -15 -19 -16 -6 -19 3 -9 28 7 18 24 12 24 -9z m-4020 6 c0 -6 -4 -13 -10
-16 -5 -3 -10 1 -10 9 0 9 5 16 10 16 6 0 10 -4 10 -9z m-137 -15 c3 -8 -1
-17 -9 -20 -9 -4 -14 1 -14 14 0 23 15 27 23 6z m4257 -11 c0 -15 -18 -30 -27
-22 -2 3 -2 15 2 26 7 23 25 19 25 -4z m-4330 0 c0 -8 -4 -15 -10 -15 -5 0 -7
7 -4 15 4 8 8 15 10 15 2 0 4 -7 4 -15z m4275 5 c3 -5 -1 -10 -10 -10 -9 0
-13 5 -10 10 3 6 8 10 10 10 2 0 7 -4 10 -10z m95 -30 c-18 -11 -24 -6 -16 16
5 14 9 15 19 5 9 -9 9 -14 -3 -21z m-4515 -20 c-7 -11 -35 -14 -35 -4 0 3 5
15 11 26 10 19 12 20 21 5 5 -10 6 -22 3 -27z m75 25 c0 -8 -4 -15 -10 -15 -5
0 -10 7 -10 15 0 8 5 15 10 15 6 0 10 -7 10 -15z m775 -12 c15 -16 35 -45 45
-66 l19 -39 -42 35 c-51 42 -87 97 -63 97 8 0 27 -12 41 -27z m3715 13 c0 -8
-4 -18 -10 -21 -5 -3 -10 3 -10 14 0 12 5 21 10 21 6 0 10 -6 10 -14z m50 -5
c0 -10 -7 -21 -15 -25 -16 -6 -19 3 -9 28 8 22 24 20 24 -3z m-4687 -15 c6
-16 -1 -26 -19 -26 -7 0 -10 8 -7 20 6 23 19 26 26 6z m727 -35 c-11 -23 -23
-41 -26 -41 -6 0 -6 -1 21 52 11 21 21 36 23 34 2 -2 -6 -22 -18 -45z m4000
34 c0 -8 -4 -15 -10 -15 -5 0 -7 7 -4 15 4 8 8 15 10 15 2 0 4 -7 4 -15z
m-4800 -15 c0 -11 -7 -20 -15 -20 -17 0 -18 2 -9 24 9 23 24 20 24 -4z m4850
5 c0 -8 -4 -15 -10 -15 -5 0 -10 7 -10 15 0 8 5 15 10 15 6 0 10 -7 10 -15z
m-4920 -20 c0 -15 -18 -30 -27 -22 -2 3 -2 15 2 26 7 23 25 19 25 -4z m-70
-10 c0 -15 -18 -30 -27 -22 -2 3 -2 15 2 26 7 23 25 19 25 -4z m4606 -22 c3
-18 8 -33 10 -33 2 0 15 11 28 25 23 22 29 24 48 14 13 -7 25 -10 28 -8 3 2 6
-10 8 -28 2 -22 -5 -44 -22 -70 -32 -46 -32 -57 -1 -108 14 -22 25 -50 25 -62
0 -13 5 -23 11 -23 7 0 9 45 7 139 -2 77 0 142 4 146 10 11 148 -17 164 -33 8
-7 14 -22 14 -33 0 -18 3 -17 25 8 13 15 25 23 25 18 0 -6 10 -11 23 -12 12 0
33 -3 47 -6 14 -3 31 -6 38 -6 6 -1 12 -8 12 -16 0 -8 5 -15 10 -15 6 0 10
-12 11 -27 1 -27 1 -26 9 5 4 18 10 36 13 39 7 6 147 -28 147 -36 0 -3 7 -15
15 -25 14 -19 16 -19 34 -2 14 13 25 15 38 9 31 -16 83 -15 83 1 0 9 8 14 20
13 15 -1 20 -8 20 -32 0 -40 11 -57 30 -45 32 21 47 11 60 -37 7 -27 14 -43
15 -38 2 6 6 22 9 38 13 59 75 17 77 -53 1 -43 1 -44 9 -13 13 55 24 63 68 47
45 -16 79 -18 87 -4 12 19 34 10 37 -17 2 -14 10 -27 18 -29 108 -20 140 -40
140 -85 0 -15 -7 -34 -15 -42 -13 -13 -13 -19 -1 -42 8 -15 12 -34 9 -43 -4
-10 -2 -13 6 -8 8 5 11 24 7 54 -3 28 1 60 9 79 15 36 17 37 43 24 9 -6 29
-12 44 -16 15 -3 38 -17 52 -31 24 -26 24 -26 31 -5 7 24 25 29 25 7 0 -14 52
-37 98 -45 4 0 13 -16 20 -33 11 -28 14 -31 22 -16 12 19 40 17 108 -8 l43
-16 -6 -136 c-6 -146 -14 -170 -54 -157 -15 5 -21 15 -22 38 0 29 -1 30 -9 10
-5 -13 -14 -24 -20 -24 -5 -1 -16 -2 -22 -3 -16 -1 -30 -77 -17 -91 12 -12 11
-45 -1 -45 -5 0 -10 10 -10 22 0 20 -1 20 -19 4 -23 -21 -36 -6 -16 20 8 10
15 33 15 51 0 27 -3 30 -22 25 -18 -4 -20 -2 -16 16 4 12 -2 37 -12 57 l-18
35 -14 -22 c-13 -20 -18 -21 -42 -10 -17 7 -26 19 -26 34 0 17 -3 19 -12 10
-22 -22 -57 -14 -64 13 -6 23 -8 24 -23 12 -23 -19 -54 -10 -48 14 3 12 0 19
-9 19 -15 0 -15 0 -18 -84 -2 -87 -24 -86 -28 1 -3 65 -4 68 -27 65 -13 -1
-29 4 -35 12 -6 8 -22 17 -36 18 -14 2 -29 6 -35 10 -5 3 -46 15 -90 27 -52
15 -86 30 -97 44 l-18 22 0 -23 0 -22 -40 25 c-22 14 -48 25 -59 25 -31 0 -71
22 -71 38 0 11 -3 12 -14 3 -24 -20 -69 -9 -76 18 -5 21 -7 22 -19 7 -16 -19
-28 -20 -64 -3 -26 12 -36 40 -18 52 9 5 6 59 -5 93 -7 24 -51 -31 -57 -72 -8
-48 -9 -50 -49 -42 -52 10 -65 22 -51 44 6 11 13 52 14 92 2 67 0 74 -19 81
-12 5 -22 16 -22 24 0 9 -4 14 -8 11 -5 -3 -7 -26 -6 -53 2 -26 -1 -50 -7 -54
-7 -4 -7 -19 1 -48 12 -44 2 -71 -25 -71 -16 0 -55 34 -55 49 0 6 -5 11 -11
11 -5 0 -7 -5 -4 -10 8 -13 -33 -29 -57 -22 -10 2 -18 11 -18 18 0 18 -10 18
-24 -1 -19 -25 -53 -8 -61 31 -7 39 -22 45 -27 12 -2 -18 -10 -23 -35 -24 -18
0 -36 -3 -39 -7 -15 -15 -26 -6 -22 18 4 21 3 23 -14 14 -23 -13 -58 -3 -58
17 0 8 -6 14 -14 14 -8 0 -17 6 -19 13 -3 6 -6 2 -6 -10 -1 -18 -7 -23 -28
-23 -52 0 -53 6 -55 162 -2 154 4 178 43 175 13 -1 21 -11 25 -34z m474 27 c0
-5 -5 -10 -11 -10 -5 0 -7 5 -4 10 3 6 8 10 11 10 2 0 4 -4 4 -10z m70 -24
c-14 -14 -24 0 -16 21 6 15 8 15 16 3 6 -9 5 -19 0 -24z m-5223 -10 c-4 -9
-11 -16 -18 -16 -6 0 -8 7 -5 16 3 9 6 21 6 27 0 8 3 8 11 0 7 -7 9 -19 6 -27z
m606 -31 c54 -67 270 -369 371 -518 39 -58 66 -108 66 -123 0 -25 -1 -26 -22
-12 -28 18 -70 73 -183 235 -47 67 -117 162 -156 210 -39 48 -77 96 -84 106
-7 10 -21 20 -31 21 -10 2 -21 15 -25 30 -4 15 -14 34 -21 43 -11 13 -14 -53
-18 -395 -4 -300 -8 -414 -17 -423 -9 -9 -13 -5 -18 17 -11 49 -12 50 -23 24
-9 -23 -11 -23 -17 -7 -9 22 4 527 13 542 4 5 9 -60 12 -145 l6 -155 2 225 c3
252 13 368 33 381 31 20 63 4 112 -56z m4667 45 c0 -11 -6 -20 -14 -20 -9 0
-12 7 -9 20 3 11 9 20 14 20 5 0 9 -9 9 -20z m-5346 -15 c3 -9 -1 -18 -10 -22
-19 -7 -26 0 -18 21 8 20 20 21 28 1z m5436 -10 c0 -16 -6 -25 -15 -25 -18 0
-18 5 -5 31 14 26 20 24 20 -6z m41 -28 c-15 -15 -24 -2 -16 24 7 20 8 21 17
5 7 -12 7 -21 -1 -29z m-5551 -1 c-14 -14 -24 0 -16 21 6 15 8 15 16 3 6 -9 5
-19 0 -24z m5600 5 c0 -19 -17 -38 -25 -29 -7 7 7 48 16 48 5 0 9 -9 9 -19z
m-5746 -7 c8 -20 -1 -34 -20 -34 -15 0 -17 9 -8 34 8 20 20 20 28 0z m76 -4
c0 -11 -7 -20 -15 -20 -17 0 -18 2 -9 24 9 23 24 20 24 -4z m1690 -216 c64
-85 124 -170 135 -189 19 -37 15 -56 -8 -36 -28 23 -317 440 -317 457 0 13 77
-81 190 -232z m4028 214 c2 -9 -4 -18 -13 -21 -11 -5 -15 0 -15 19 0 28 23 29
28 2z m35 -3 c4 -8 2 -17 -3 -20 -6 -4 -10 3 -10 14 0 25 6 27 13 6z m-5910
-9 c6 -15 -19 -43 -29 -33 -8 8 5 47 16 47 4 0 10 -6 13 -14z m-81 -38 c-18
-18 -30 -5 -20 22 9 23 10 24 20 7 7 -13 7 -22 0 -29z m6083 22 c8 -13 -14
-42 -25 -35 -10 6 -1 45 11 45 4 0 11 -5 14 -10z m-5895 -8 c0 -13 -76 -129
-133 -202 -56 -72 -75 -93 -61 -70 15 27 119 194 148 238 27 39 46 53 46 34z
m5950 -24 c0 -5 -9 -8 -20 -8 -18 0 -19 3 -9 21 9 17 13 19 20 8 5 -8 9 -17 9
-21z m-6211 -19 c-17 -10 -24 4 -14 29 6 16 7 16 17 -2 8 -14 7 -21 -3 -27z
m-69 5 c0 -8 -7 -14 -15 -14 -17 0 -18 2 -9 24 7 18 24 12 24 -10z m542 -61
c201 -275 445 -639 473 -706 14 -34 14 -38 -1 -44 -30 -11 -65 37 -366 499
-60 93 -205 274 -213 266 -1 -2 -5 -203 -9 -448 -6 -453 -10 -524 -30 -517
-12 4 -12 41 -8 657 l2 361 23 9 c51 20 63 13 129 -77z m5778 67 c0 -11 -7
-20 -15 -20 -15 0 -21 21 -8 33 12 13 23 7 23 -13z m-6397 -14 c6 -15 -1 -26
-15 -26 -4 0 -8 9 -8 20 0 23 15 27 23 6z m6477 -20 c-14 -14 -24 0 -16 21 6
15 8 15 16 3 6 -9 5 -19 0 -24z m-6560 -16 c-18 -11 -24 -6 -16 16 5 14 9 15
19 5 9 -9 9 -14 -3 -21z m6610 11 c0 -10 -7 -21 -15 -25 -16 -6 -19 3 -9 28 8
22 24 20 24 -3z m-6678 -23 c-15 -15 -26 -4 -18 18 5 13 9 15 18 6 9 -9 9 -15
0 -24z m6718 7 c0 -16 -6 -25 -15 -25 -18 0 -18 5 -5 31 14 26 20 24 20 -6z
m40 -10 c0 -8 -4 -15 -10 -15 -5 0 -7 7 -4 15 4 8 8 15 10 15 2 0 4 -7 4 -15z
m-6850 -15 c0 -19 -11 -26 -23 -14 -8 8 3 34 14 34 5 0 9 -9 9 -20z m-81 -40
c-21 -14 -32 5 -18 31 l12 24 10 -23 c8 -18 7 -26 -4 -32z m-74 0 c0 -7 -6
-15 -12 -17 -8 -3 -13 4 -13 17 0 13 5 20 13 18 6 -3 12 -11 12 -18z m1522
-22 c-3 -7 -5 -2 -5 12 0 14 2 19 5 13 2 -7 2 -19 0 -25z m2963 2 c0 -20 -5
-30 -15 -30 -16 0 -19 17 -9 44 10 26 24 18 24 -14z m490 5 c0 -16 -6 -25 -15
-25 -18 0 -18 5 -5 31 14 26 20 24 20 -6z m-5051 -21 c-16 -19 -29 -17 -29 4
0 26 11 34 27 21 10 -9 10 -15 2 -25z m7288 4 c-3 -8 -6 -5 -6 6 -1 11 2 17 5
13 3 -3 4 -12 1 -19z m-7367 -8 c0 -11 -7 -20 -15 -20 -17 0 -18 2 -9 24 9 23
24 20 24 -4z m-77 -14 c6 -15 -19 -43 -29 -33 -8 8 5 47 16 47 4 0 10 -6 13
-14z m511 -43 c26 -32 75 -100 109 -152 34 -52 67 -101 72 -109 56 -84 237
-368 259 -405 20 -36 32 -47 45 -42 12 4 21 -3 29 -21 7 -14 9 -30 6 -36 -3
-5 -1 -30 6 -54 28 -98 -13 -63 -125 106 -45 69 -115 179 -155 245 -157 256
-305 465 -331 465 -5 0 -9 -61 -9 -137 0 -76 -4 -144 -9 -151 -15 -24 -19 22
-17 179 3 159 6 169 52 169 14 0 38 -20 68 -57z m4420 -19 c8 -20 -1 -34 -20
-34 -15 0 -17 9 -8 34 8 20 20 20 28 0z m56 -9 c0 -15 -18 -30 -27 -22 -2 3
-2 15 2 26 7 23 25 19 25 -4z m356 -12 c-11 -11 -17 4 -9 23 7 18 8 18 11 1 2
-10 1 -21 -2 -24z m64 11 c0 -8 -7 -14 -15 -14 -17 0 -18 2 -9 24 7 18 24 12
24 -10z m-587 -21 c-3 -7 -8 -13 -12 -13 -16 0 -20 14 -10 33 9 15 13 17 19 7
5 -7 6 -19 3 -27z m49 5 c-6 -6 -15 -9 -18 -5 -4 3 -4 14 0 23 5 13 9 15 18 6
9 -9 9 -15 0 -24z m168 17 c0 -8 -7 -15 -15 -15 -9 0 -12 6 -9 15 4 8 10 15
15 15 5 0 9 -7 9 -15z m210 0 c0 -8 -4 -15 -10 -15 -5 0 -10 7 -10 15 0 8 5
15 10 15 6 0 10 -7 10 -15z m50 0 c0 -8 -4 -15 -10 -15 -5 0 -7 7 -4 15 4 8 8
15 10 15 2 0 4 -7 4 -15z m160 -6 c0 -5 -7 -9 -15 -9 -9 0 -12 6 -9 15 6 15
24 11 24 -6z m100 -5 c0 -8 -4 -14 -10 -14 -5 0 -10 9 -10 21 0 11 5 17 10 14
6 -3 10 -13 10 -21z m46 -10 c-3 -8 -10 -12 -16 -9 -7 4 -6 14 2 28 12 24 24
8 14 -19z m-956 6 c0 -11 -4 -20 -10 -20 -5 0 -10 9 -10 20 0 11 5 20 10 20 6
0 10 -9 10 -20z m60 0 c0 -19 -11 -26 -23 -14 -8 8 3 34 14 34 5 0 9 -9 9 -20z
m55 -10 c-5 -8 -11 -8 -17 -2 -6 6 -7 16 -3 22 5 8 11 8 17 2 6 -6 7 -16 3
-22z m435 20 c0 -5 -4 -10 -10 -10 -5 0 -10 5 -10 10 0 6 5 10 10 10 6 0 10
-4 10 -10z m296 -17 c-10 -10 -19 5 -10 18 6 11 8 11 12 0 2 -7 1 -15 -2 -18z
m-1841 7 c8 -13 -4 -50 -16 -50 -13 0 -22 27 -15 45 6 17 22 20 31 5z m775
-21 c0 -10 -7 -19 -15 -19 -16 0 -19 9 -9 34 8 20 24 11 24 -15z m50 6 c0 -14
-4 -25 -10 -25 -11 0 -14 33 -3 43 11 11 13 8 13 -18z m52 -7 c-9 -9 -12 -7
-12 12 0 19 3 21 12 12 9 -9 9 -15 0 -24z m54 5 c-10 -10 -19 5 -10 18 6 11 8
11 12 0 2 -7 1 -15 -2 -18z m1120 0 c-10 -10 -19 5 -10 18 6 11 8 11 12 0 2
-7 1 -15 -2 -18z m54 12 c0 -8 -4 -15 -10 -15 -5 0 -10 7 -10 15 0 8 5 15 10
15 6 0 10 -7 10 -15z m46 -22 c-11 -11 -19 6 -11 24 8 17 8 17 12 0 3 -10 2
-21 -1 -24z m58 22 c3 -9 -1 -18 -10 -22 -19 -7 -26 0 -18 21 8 20 20 21 28 1z
m-6177 -11 c7 -18 -17 -38 -30 -25 -9 9 1 41 14 41 5 0 12 -7 16 -16z m6218
-13 c-9 -16 -25 -3 -18 15 4 10 9 12 15 6 6 -6 7 -15 3 -21z m42 -3 c-3 -8 -6
-5 -6 6 -1 11 2 17 5 13 3 -3 4 -12 1 -19z m351 -31 c-5 -32 -22 -18 -25 20
-2 36 -1 37 13 18 8 -11 13 -28 12 -38z m1503 30 c-10 -9 -11 -8 -5 6 3 10 9
15 12 12 3 -3 0 -11 -7 -18z m-8201 -6 c0 -22 -15 -35 -30 -26 -7 4 -7 13 0
26 14 25 30 25 30 0z m4770 -13 c0 -36 -4 -35 -14 5 -4 16 -2 27 4 27 5 0 10
-14 10 -32z m1743 17 c7 -16 -8 -29 -23 -20 -10 6 -2 35 10 35 4 0 10 -7 13
-15z m-1253 -44 c-1 -43 -51 -55 -74 -18 -9 15 -6 23 18 44 28 24 30 24 43 7
7 -10 13 -25 13 -33z m1300 34 c0 -8 -7 -15 -15 -15 -9 0 -12 6 -9 15 4 8 10
15 15 15 5 0 9 -7 9 -15z m48 -2 c-5 -25 -28 -28 -28 -4 0 12 6 21 16 21 9 0
14 -7 12 -17z m47 -23 c-7 -11 -35 -14 -35 -4 0 3 5 15 11 26 10 19 12 20 21
5 5 -10 6 -22 3 -27z m-6735 -1 c0 -13 -7 -19 -21 -19 -11 0 -18 3 -16 8 2 4
7 15 10 25 8 22 27 13 27 -14z m4560 11 c0 -11 -7 -20 -15 -20 -17 0 -18 2 -9
24 9 23 24 20 24 -4z m-1680 -25 c0 -19 -4 -35 -10 -35 -11 0 -14 53 -3 63 11
12 13 8 13 -28z m1620 15 c0 -11 -4 -20 -10 -20 -5 0 -10 9 -10 20 0 11 5 20
10 20 6 0 10 -9 10 -20z m2330 -5 c0 -7 -7 -15 -15 -19 -15 -5 -22 24 -9 37 9
9 24 -2 24 -18z m1540 15 c0 -5 -5 -10 -11 -10 -5 0 -7 5 -4 10 3 6 8 10 11
10 2 0 4 -4 4 -10z m-1500 -22 c0 -16 -3 -19 -11 -11 -6 6 -8 16 -5 22 11 17
16 13 16 -11z m-6955 -9 c0 -7 -8 -15 -17 -17 -12 -2 -15 2 -11 18 6 23 28 22
28 -1z m4525 11 c0 -5 -4 -10 -10 -10 -5 0 -10 5 -10 10 0 6 5 10 10 10 6 0
10 -4 10 -10z m1346 -15 c12 -48 -44 -74 -70 -33 -8 13 -6 22 8 37 26 29 54
27 62 -4z m-5785 -101 c-80 -159 -171 -320 -171 -304 0 8 7 29 16 45 9 17 45
87 80 157 69 138 113 213 120 205 3 -3 -17 -49 -45 -103z m3849 91 c18 -22 -4
-105 -29 -105 -4 0 -13 16 -20 35 -11 31 -10 39 3 60 19 29 29 31 46 10z
m-4020 -9 c0 -16 -18 -31 -27 -22 -8 8 5 36 17 36 5 0 10 -6 10 -14z m7250 -6
c0 -11 -7 -20 -15 -20 -15 0 -21 21 -8 33 12 13 23 7 23 -13z m-3510 -26 c0
-13 -2 -24 -4 -24 -2 0 -11 -3 -20 -6 -12 -5 -16 0 -16 18 0 26 18 50 32 42 4
-3 8 -16 8 -30z m3542 4 c-15 -15 -24 -6 -16 16 5 12 10 14 17 7 8 -8 8 -14
-1 -23z m-7362 -3 c0 -16 -6 -25 -15 -25 -15 0 -21 31 -8 43 13 14 23 6 23
-18z m4280 5 c0 -11 -7 -20 -15 -20 -17 0 -18 2 -9 24 9 23 24 20 24 -4z
m3126 -27 c-2 -3 -9 -2 -15 2 -8 4 -7 13 1 28 l13 22 3 -23 c2 -13 1 -26 -2
-29z m-6961 -15 c8 -21 13 -38 11 -38 -8 0 -46 67 -46 81 0 20 17 -1 35 -43z
m3769 36 c8 -20 -1 -34 -21 -34 -10 0 -13 6 -9 16 3 9 6 20 6 25 0 15 17 10
24 -7z m-64 -19 c0 -16 -6 -25 -15 -25 -16 0 -19 9 -9 34 9 25 24 19 24 -9z
m3302 -7 c-15 -15 -26 -4 -18 18 5 13 9 15 18 6 9 -9 9 -15 0 -24z m-7532 3
c0 -10 -6 -21 -14 -24 -19 -7 -25 0 -19 24 7 25 33 25 33 0z m7580 4 c0 -8 -4
-15 -10 -15 -5 0 -10 7 -10 15 0 8 5 15 10 15 6 0 10 -7 10 -15z m1235 -108
c-1 -98 -6 -129 -21 -115 -8 9 -18 194 -10 213 3 9 12 15 19 12 8 -3 12 -34
12 -110z m-4705 83 c0 -11 -7 -20 -15 -20 -8 0 -15 9 -15 20 0 11 7 20 15 20
8 0 15 -9 15 -20z m3282 5 c0 -5 -5 -11 -11 -13 -6 -2 -11 4 -11 13 0 9 5 15
11 13 6 -2 11 -8 11 -13z m1588 11 c0 -3 -4 -8 -10 -11 -5 -3 -10 -1 -10 4 0
6 5 11 10 11 6 0 10 -2 10 -4z m-9066 -21 c3 -9 -1 -18 -10 -22 -19 -7 -26 0
-18 21 8 20 20 21 28 1z m7743 -7 c-3 -8 -6 -5 -6 6 -1 11 2 17 5 13 3 -3 4
-12 1 -19z m1355 0 c-7 -7 -12 -8 -12 -2 0 14 12 26 19 19 2 -3 -1 -11 -7 -17z
m-4964 -10 c-5 -32 -28 -35 -28 -4 0 17 5 26 16 26 10 0 14 -7 12 -22z m-4218
-8 c0 -11 -7 -23 -15 -27 -21 -7 -25 -2 -18 25 7 28 33 29 33 2z m4160 -5 c0
-19 -20 -29 -32 -17 -8 8 -7 16 2 26 14 17 30 12 30 -9z m-1138 -7 c-7 -7 -12
-8 -12 -2 0 14 12 26 19 19 2 -3 -1 -11 -7 -17z m4945 -16 c-14 -17 -22 0 -12
26 5 14 7 14 15 2 5 -9 4 -20 -3 -28z m-8053 12 c10 -25 7 -31 -14 -37 -13 -3
-20 0 -20 8 0 20 11 45 20 45 4 0 11 -7 14 -16z m8106 -9 c0 -15 -18 -30 -27
-22 -2 3 -2 15 2 26 7 23 25 19 25 -4z m40 -32 c0 -7 -7 -13 -15 -13 -16 0
-19 9 -9 35 5 13 8 14 15 3 5 -7 9 -19 9 -25z m-8227 -14 c-6 -6 -18 -9 -26
-7 -11 2 -12 9 -5 27 8 23 10 24 25 8 13 -12 14 -20 6 -28z m3631 15 c11 -29
6 -53 -13 -63 -21 -12 -31 -5 -31 21 0 20 21 58 31 58 4 0 10 -7 13 -16z
m4627 -17 c-8 -8 -11 -7 -11 4 0 20 13 34 18 19 3 -7 -1 -17 -7 -23z m-8355
-23 c-6 -16 -36 -19 -36 -3 0 6 5 20 11 31 10 19 12 20 21 4 5 -9 7 -24 4 -32z
m3515 24 c23 -29 24 -60 1 -88 -16 -20 -23 -21 -48 -13 -25 8 -29 15 -32 52
-5 69 39 96 79 49z m4889 -12 c-14 -14 -24 0 -16 21 6 15 8 15 16 3 6 -9 5
-19 0 -24z m40 -16 c-18 -11 -22 -7 -14 14 5 13 10 14 18 6 8 -8 7 -13 -4 -20z
m-6564 -7 c-10 -10 -19 5 -10 18 6 11 8 11 12 0 2 -7 1 -15 -2 -18z m6614 7
c0 -11 -7 -20 -15 -20 -17 0 -18 2 -9 24 9 23 24 20 24 -4z m1111 -2 c14 -25
5 -361 -10 -400 -9 -23 -9 -23 -21 7 -18 45 -26 380 -10 400 17 21 27 19 41
-7z m-9688 -2 c7 -19 -18 -42 -28 -26 -8 13 1 40 14 40 5 0 11 -6 14 -14z
m2355 -3 c-2 -11 -14 -19 -31 -21 -26 -3 -28 -2 -17 17 13 26 53 29 48 4z
m955 2 c-3 -9 -8 -14 -10 -11 -3 3 -2 9 2 15 9 16 15 13 8 -4z m5303 -22 c-10
-10 -19 5 -10 18 6 11 8 11 12 0 2 -7 1 -15 -2 -18z m-8702 1 c8 -20 -1 -34
-20 -34 -15 0 -17 9 -8 34 8 20 20 20 28 0z m186 -4 c0 -15 -32 -76 -98 -190
-88 -152 -113 -190 -128 -190 -7 0 -11 -6 -8 -14 6 -16 -12 -54 -57 -120 -62
-92 -67 -64 -8 44 23 41 65 120 94 176 64 124 140 251 168 282 22 24 37 28 37
12z m2309 -160 c-2 -182 -12 -239 -22 -127 -9 92 2 305 14 285 5 -7 8 -78 8
-158z m6247 143 c-10 -10 -19 5 -10 18 6 11 8 11 12 0 2 -7 1 -15 -2 -18z m54
-3 c0 -11 -7 -20 -15 -20 -17 0 -18 2 -9 24 9 23 24 20 24 -4z m-8886 -5 c3
-9 -1 -18 -10 -22 -19 -7 -26 0 -18 21 8 20 20 21 28 1z m9739 -62 c-109 -133
-108 -130 -113 -200 -3 -41 -10 -68 -17 -71 -7 -2 -13 4 -13 14 0 16 -1 16
-14 -2 -11 -14 -18 -16 -26 -8 -14 14 -1 47 16 40 11 -4 14 5 12 39 -1 51 17
79 126 193 81 84 100 81 29 -5z m-9260 -78 c48 -74 92 -135 97 -135 6 0 10 13
10 29 0 17 4 32 9 35 12 8 21 -29 21 -84 0 -45 35 -131 55 -137 6 -1 20 13 33
33 13 20 25 34 27 32 2 -2 -5 -29 -16 -60 l-21 -55 78 -134 c98 -171 135 -229
146 -229 4 0 8 -6 8 -13 0 -14 71 -154 127 -251 35 -60 37 -96 5 -96 -20 0
-142 195 -239 380 -92 175 -175 315 -358 605 -56 88 -104 169 -108 179 -8 19
6 36 28 36 6 0 49 -61 98 -135z m-573 91 c-14 -14 -22 -2 -14 18 5 14 9 15 15
4 4 -7 4 -17 -1 -22z m9061 11 c-13 -13 -26 -3 -16 12 3 6 11 8 17 5 6 -4 6
-10 -1 -17z m-6466 -43 c-23 -36 -31 -22 -9 16 10 17 20 26 22 20 2 -6 -4 -22
-13 -36z m6510 25 c-10 -15 -25 -10 -19 6 4 8 10 12 15 9 5 -3 7 -10 4 -15z
m-9193 -21 c-15 -15 -26 -4 -18 18 5 13 9 15 18 6 9 -9 9 -15 0 -24z m1696
-137 c133 -201 170 -260 237 -376 75 -131 99 -185 85 -199 -13 -13 -23 -3 -98
109 -67 100 -184 303 -272 470 -110 208 -90 207 48 -4z m7622 119 c0 -11 -7
-20 -15 -20 -17 0 -18 2 -9 24 9 23 24 20 24 -4z m492 -22 c-7 -7 -12 -8 -12
-2 0 14 12 26 19 19 2 -3 -1 -11 -7 -17z m573 -203 c-4 -110 -11 -206 -15
-214 -7 -14 -25 137 -35 310 -5 82 -3 99 11 113 13 13 19 14 31 4 13 -10 14
-41 8 -213z m-1025 205 c0 -5 -5 -10 -11 -10 -5 0 -7 5 -4 10 3 6 8 10 11 10
2 0 4 -4 4 -10z m40 -20 c0 -11 -7 -20 -15 -20 -17 0 -18 2 -9 24 9 23 24 20
24 -4z m-8860 -166 c0 -85 -3 -154 -6 -154 -3 0 -14 4 -24 10 -16 9 -18 21
-14 117 4 108 21 196 36 187 4 -3 8 -75 8 -160z m446 46 c-26 -39 -48 -70 -51
-70 -5 0 65 151 79 169 9 12 12 10 14 -8 2 -13 -15 -49 -42 -91z m9294 38
c-24 -35 -61 -84 -82 -110 -51 -62 -68 -96 -68 -134 0 -24 -5 -33 -22 -37 -28
-8 -32 -3 -19 21 6 12 11 32 11 45 0 14 18 51 39 83 46 68 171 208 179 200 3
-3 -14 -34 -38 -68z m-757 38 c6 -16 -1 -26 -19 -26 -7 0 -10 8 -7 20 6 23 19
26 26 6z m379 -51 c8 -14 2 -12 -21 9 -17 17 -31 34 -31 39 0 14 39 -23 52
-48z m-10369 30 c0 -6 -7 -11 -16 -13 -12 -3 -15 1 -11 13 7 17 25 17 27 0z
m10027 -19 c-14 -14 -24 0 -16 21 6 15 8 15 16 3 6 -9 5 -19 0 -24z m-10211
-18 c12 -19 11 -23 -5 -35 -33 -24 -50 -10 -34 31 12 32 21 33 39 4z m10117
-69 c1 -112 -8 -122 -22 -24 -12 84 -9 118 10 112 7 -2 11 -35 12 -88z m134
76 c0 -8 -4 -15 -10 -15 -5 0 -10 7 -10 15 0 8 5 15 10 15 6 0 10 -7 10 -15z
m44 -10 c3 -9 -1 -18 -10 -22 -19 -7 -26 0 -18 21 8 20 20 21 28 1z m36 -20
c0 -8 -4 -15 -10 -15 -5 0 -10 7 -10 15 0 8 5 15 10 15 6 0 10 -7 10 -15z
m-10438 -27 c-15 -15 -26 -4 -18 18 5 13 9 15 18 6 9 -9 9 -15 0 -24z m313
-83 c-29 -84 -75 -188 -81 -183 -5 6 55 204 78 255 33 74 35 22 3 -72z m11153
-98 c1 -98 -1 -198 -6 -225 l-9 -47 -12 29 c-6 16 -16 108 -21 204 -9 153 -8
179 6 200 32 49 39 22 42 -161z m-8444 112 c10 -50 7 -84 -9 -105 -13 -16 -16
-17 -25 -4 -19 29 -8 140 15 140 7 0 15 -14 19 -31z m7576 6 c0 -15 -18 -30
-27 -22 -2 3 -2 15 2 26 7 23 25 19 25 -4z m-10882 -7 c2 -9 -5 -18 -14 -22
-22 -9 -27 -2 -19 24 7 23 28 22 33 -2z m1052 -33 c0 -30 -4 -55 -10 -55 -5 0
-7 -7 -4 -15 4 -8 1 -15 -6 -15 -8 0 -11 9 -7 26 2 14 1 42 -4 62 -9 40 -5 52
17 52 10 0 14 -14 14 -55z m-1140 -1 c0 -11 -21 -24 -41 -24 -13 0 -11 44 3
58 10 10 15 9 25 -5 7 -9 13 -22 13 -29z m11704 21 c-19 -30 -126 -126 -133
-120 -2 3 7 15 20 28 13 13 44 45 68 70 47 51 72 62 45 22z m-694 1 c0 -16
-18 -31 -27 -22 -8 8 5 36 17 36 5 0 10 -6 10 -14z m690 -97 l-62 -93 17 -29
c22 -36 10 -50 -16 -18 -19 23 -20 23 -39 6 -12 -11 -20 -31 -20 -51 0 -34
-15 -53 -30 -38 -9 9 1 38 41 119 25 52 162 221 167 207 2 -6 -25 -52 -58
-103z m-7405 70 c5 -14 2 -25 -6 -30 -19 -11 -32 5 -24 30 8 27 22 27 30 0z
m6742 -11 c-16 -10 -21 -2 -13 19 6 15 9 15 16 3 6 -9 5 -17 -3 -22z m-11154
8 c7 -17 -1 -26 -24 -26 -12 0 -16 6 -12 20 6 23 28 27 36 6z m11050 -56 c-1
-36 -2 -76 -2 -89 -1 -37 -12 -18 -17 30 -2 24 -7 64 -10 87 -6 39 -4 43 12
40 16 -3 19 -12 17 -68z m147 46 c0 -8 -4 -18 -10 -21 -5 -3 -10 3 -10 14 0
12 5 21 10 21 6 0 10 -6 10 -14z m-11296 -11 c3 -9 -1 -18 -10 -22 -19 -7 -28
2 -21 22 8 19 23 19 31 0z m-110 -11 c8 -22 -1 -34 -26 -34 -14 0 -18 5 -14
16 3 9 6 20 6 25 0 15 27 10 34 -7z m11441 -13 c-9 -16 -25 -3 -18 15 4 10 9
12 15 6 6 -6 7 -15 3 -21z m878 22 c-7 -2 -19 -2 -25 0 -7 3 -2 5 12 5 14 0
19 -2 13 -5z m-841 -45 c-15 -15 -26 -4 -18 18 5 13 9 15 18 6 9 -9 9 -15 0
-24z m42 -3 c3 -9 0 -15 -9 -15 -9 0 -12 6 -9 15 4 8 7 15 9 15 2 0 5 -7 9
-15z m-11729 -16 c5 -13 2 -25 -6 -30 -17 -10 -29 -2 -29 20 0 35 25 42 35 10z
m12683 -120 c4 -147 -7 -309 -19 -286 -11 19 -28 186 -29 275 0 34 -4 62 -8
62 -5 0 -16 -15 -25 -34 -22 -47 -120 -204 -151 -241 -28 -35 -41 -30 -26 10
26 68 225 338 244 332 7 -2 12 -49 14 -118z m-11018 101 c0 -5 -4 -10 -10 -10
-5 0 -10 5 -10 10 0 6 5 10 10 10 6 0 10 -4 10 -10z m535 -207 c-6 -48 -8 -51
-22 -37 -11 11 -17 44 -21 124 -5 109 -5 110 19 118 24 9 24 9 27 -72 2 -44 0
-105 -3 -133z m1834 180 c-63 -103 -90 -143 -99 -143 -19 0 -14 10 72 128 45
60 60 69 27 15z m8556 0 c-33 -51 -86 -113 -94 -109 -4 3 -24 -9 -44 -25 -67
-56 -41 -21 75 99 71 73 96 87 63 35z m-9586 -49 c3 -114 17 -168 56 -226 19
-29 35 -59 35 -66 0 -22 -15 -6 -40 42 -13 25 -26 46 -30 46 -4 0 -10 -68 -14
-152 -8 -170 -24 -232 -52 -204 -8 9 -20 13 -26 10 -7 -4 -9 76 -8 242 1 137
2 256 1 264 -1 8 -24 -30 -52 -85 -54 -107 -89 -155 -89 -121 0 29 114 247
126 242 6 -3 17 1 23 7 8 8 11 3 12 -18 0 -17 4 -39 8 -50 6 -15 10 -5 15 40
6 54 20 105 29 105 2 0 4 -34 6 -76z m8841 35 c0 -5 -7 -9 -15 -9 -9 0 -12 6
-9 15 6 15 24 11 24 -6z m-8127 -11 l16 -23 0 23 c1 12 6 22 11 22 13 0 13
-80 0 -100 -8 -12 -10 -11 -10 7 0 27 -16 38 -24 17 -9 -24 -50 -14 -54 14 -3
22 22 62 38 62 4 0 15 -10 23 -22z m8157 -22 c-14 -14 -24 0 -16 21 6 15 8 15
16 3 6 -9 5 -19 0 -24z m-77 -115 c-2 -68 -5 -126 -8 -129 -9 -10 -15 5 -19
49 -2 24 -7 76 -11 116 -8 76 -3 96 23 91 15 -3 17 -19 15 -127z m-11493 108
c0 -10 -49 -99 -55 -99 -6 0 18 85 28 98 12 15 27 16 27 1z m11610 -4 c0 -8
-7 -15 -15 -15 -9 0 -12 6 -9 15 4 8 10 15 15 15 5 0 9 -7 9 -15z m40 -21 c0
-8 -7 -14 -15 -14 -15 0 -21 21 -9 33 10 9 24 -2 24 -19z m30 -14 c0 -11 -4
-20 -10 -20 -5 0 -10 9 -10 20 0 11 5 20 10 20 6 0 10 -9 10 -20z m40 -15 c0
-16 -6 -25 -15 -25 -16 0 -19 9 -9 34 9 25 24 19 24 -9z m253 -68 l48 -72 -51
55 c-60 64 -77 90 -58 90 7 0 35 -33 61 -73z m-10559 1 c-9 -18 -19 -28 -21
-21 -2 6 4 27 13 45 9 18 19 28 21 21 2 -6 -4 -27 -13 -45z m11265 -191 c-1
-197 -8 -263 -23 -239 -9 14 -25 221 -26 327 0 70 19 123 41 110 5 -4 8 -89 8
-198z m-109 144 c-19 -28 -60 -59 -60 -46 0 9 73 86 77 81 3 -3 -5 -19 -17
-35z m-710 10 c0 -6 -4 -13 -10 -16 -5 -3 -10 1 -10 9 0 9 5 16 10 16 6 0 10
-4 10 -9z m32 -43 c-15 -15 -26 -4 -18 18 5 13 9 15 18 6 9 -9 9 -15 0 -24z
m-10101 -15 c-12 -20 -14 -14 -5 12 4 9 9 14 11 11 3 -2 0 -13 -6 -23z m9651
-28 c-8 -17 -19 -25 -30 -23 -23 4 -27 42 -6 62 15 16 18 16 32 2 13 -12 13
-20 4 -41z m363 -52 c0 -90 -6 -126 -19 -112 -2 2 -7 53 -11 112 -7 103 -7
109 11 105 17 -3 19 -14 19 -105z m726 -50 c-58 -111 -86 -151 -98 -140 -4 5
3 27 15 51 38 72 123 199 128 193 3 -3 -17 -50 -45 -104z m-497 45 c-7 -10
-34 -10 -34 0 0 4 5 13 12 20 9 9 14 9 19 0 4 -7 5 -16 3 -20z m-8744 -13 c0
-20 -212 -95 -269 -95 -43 0 -10 19 105 60 97 35 164 49 164 35z m8810 -15 c0
-11 -7 -20 -15 -20 -18 0 -19 12 -3 28 16 16 18 15 18 -8z m-10679 -13 c74
-103 326 -574 349 -654 7 -23 10 -49 6 -59 -6 -16 -8 -15 -27 2 -47 43 -324
586 -359 707 -11 34 8 36 31 4z m11459 -6 c0 -12 -51 -53 -58 -46 -6 6 38 55
50 55 4 0 8 -4 8 -9z m83 -172 c-2 -96 -6 -181 -9 -189 -20 -45 -44 292 -24
340 27 65 35 28 33 -151z m-12685 146 c-3 -3 -9 2 -12 12 -6 14 -5 15 5 6 7
-7 10 -15 7 -18z m3039 9 c7 -18 -23 -47 -38 -38 -13 8 -11 42 4 47 21 9 27 7
34 -9z m8853 -19 c0 -15 -18 -30 -27 -22 -2 3 -2 15 2 26 7 23 25 19 25 -4z
m-9843 -182 c-116 -229 -164 -312 -172 -291 -3 8 1 33 10 54 22 53 204 385
224 407 37 44 17 -13 -62 -170z m9874 144 c-13 -13 -26 -3 -16 12 3 6 11 8 17
5 6 -4 6 -10 -1 -17z m-93 -27 c4 -41 -6 -86 -17 -74 -10 11 -21 101 -13 109
13 13 27 -4 30 -35z m289 -2 c-3 -8 -6 -5 -6 6 -1 11 2 17 5 13 3 -3 4 -12 1
-19z m463 -70 c-32 -75 -98 -208 -111 -224 -16 -19 -29 -18 -29 3 0 30 147
290 158 279 3 -3 -5 -29 -18 -58z m-556 44 c2 -4 1 -14 -4 -21 -10 -17 -31 -5
-23 14 6 16 19 20 27 7z m26 -32 c0 -5 -5 -10 -11 -10 -5 0 -7 5 -4 10 3 6 8
10 11 10 2 0 4 -4 4 -10z m950 -24 c0 -16 -18 -31 -27 -22 -8 8 5 36 17 36 5
0 10 -6 10 -14z m-910 0 c0 -3 -4 -8 -10 -11 -5 -3 -10 -1 -10 4 0 6 5 11 10
11 6 0 10 -2 10 -4z m953 -29 c4 3 7 -1 7 -10 0 -9 0 -20 1 -24 0 -4 -4 -9
-10 -11 -6 -2 -11 4 -11 13 0 11 -5 15 -15 11 -16 -6 -19 3 -8 30 6 15 7 15
18 1 7 -9 15 -14 18 -10z m-77 -181 c-10 -220 -18 -242 -35 -96 -15 136 -14
194 5 238 14 34 16 35 26 18 7 -13 9 -66 4 -160z m130 124 c8 0 14 -4 14 -10
0 -5 7 -10 15 -10 8 0 15 -9 15 -20 0 -12 -7 -20 -16 -20 -10 0 -14 6 -11 14
4 10 0 12 -15 8 -17 -4 -20 -2 -15 11 5 12 1 17 -14 17 -17 0 -18 3 -7 23 10
19 13 20 16 5 2 -10 10 -18 18 -18z m-12344 -278 c7 -172 6 -296 -2 -452 -7
-118 -12 -227 -11 -242 1 -30 -22 -58 -49 -58 -17 0 -19 12 -22 153 -6 363 2
676 24 814 l11 72 20 -25 c18 -23 21 -49 29 -262z m11372 241 c6 -23 0 -122
-8 -131 -14 -14 -26 25 -26 86 0 47 3 62 14 62 8 0 17 -8 20 -17z m-10454 -24
c16 -28 -12 -72 -43 -67 -28 4 -35 43 -11 69 22 25 41 24 54 -2z m11500 -3 c0
-16 -18 -31 -27 -22 -8 8 5 36 17 36 5 0 10 -6 10 -14z m-380 1 c0 -2 -15 -16
-32 -33 l-33 -29 29 33 c28 30 36 37 36 29z m-10530 -25 c0 -11 -170 -109
-204 -118 -16 -4 -31 -15 -33 -24 -8 -31 -102 -56 -117 -31 -12 19 25 43 154
102 163 74 200 87 200 71z m10606 -54 c-27 -89 -96 -239 -122 -268 -12 -12
-14 -11 -14 8 0 33 129 302 145 302 2 0 -2 -19 -9 -42z m-12620 1 c27 -21 364
-755 364 -794 0 -9 4 -24 10 -34 7 -14 5 -23 -10 -36 -25 -23 -39 -16 -55 25
-10 28 -82 190 -135 305 -220 479 -259 598 -174 534z m11924 7 c0 -2 -7 -6
-15 -10 -8 -3 -15 -1 -15 4 0 6 7 10 15 10 8 0 15 -2 15 -4z m-9900 -31 c0
-15 -18 -30 -27 -22 -2 3 -2 15 2 26 7 23 25 19 25 -4z m11007 -5 c1 -11 -4
-20 -12 -20 -8 0 -11 7 -8 20 3 11 8 20 12 20 4 0 7 -9 8 -20z m-97 -18 c0 -4
-40 -48 -90 -97 -49 -49 -90 -85 -90 -79 0 17 151 184 166 184 8 0 14 -3 14
-8z m-10990 -21 c0 -6 -4 -13 -10 -16 -5 -3 -10 1 -10 9 0 9 5 16 10 16 6 0
10 -4 10 -9z m11050 -178 c0 -188 -6 -263 -20 -263 -16 0 -21 38 -27 204 -5
143 -3 177 10 209 31 71 37 45 37 -150z m70 177 c0 -5 -7 -10 -15 -10 -8 0
-15 5 -15 10 0 6 7 10 15 10 8 0 15 -4 15 -10z m40 -25 c5 3 10 -3 10 -14 0
-12 -4 -21 -10 -21 -5 0 -10 7 -10 16 0 10 -6 14 -15 10 -16 -6 -19 3 -8 30 6
15 7 15 15 -5 4 -12 12 -19 18 -16z m-11234 3 c7 -22 -20 -53 -37 -42 -13 8
-11 38 3 52 17 17 26 15 34 -10z m11283 -53 c1 6 6 2 12 -8 6 -9 14 -15 20
-12 5 4 9 2 9 -4 0 -5 3 -16 6 -25 4 -11 1 -16 -10 -16 -9 0 -16 7 -16 15 0 8
-5 15 -10 15 -6 0 -20 9 -32 20 -18 17 -19 22 -7 36 12 15 14 15 20 -7 4 -13
8 -19 8 -14z m-11359 -10 c0 -14 -7 -28 -15 -32 -22 -8 -28 2 -21 32 8 33 36
33 36 0z m10360 -5 c0 -5 -4 -10 -10 -10 -5 0 -10 5 -10 10 0 6 5 10 10 10 6
0 10 -4 10 -10z m-10436 -26 c7 -19 -10 -44 -30 -44 -15 0 -18 18 -8 44 8 21
30 20 38 0z m10348 -1 c-26 -64 -93 -145 -108 -130 -6 6 25 58 62 102 37 46
59 59 46 28z m88 -58 c0 -19 -4 -35 -10 -35 -12 0 -24 45 -15 59 13 22 25 10
25 -24z m-10515 5 c8 -24 -1 -40 -21 -40 -8 0 -14 10 -14 23 0 40 24 51 35 17z
m11615 -4 c0 -15 -18 -31 -26 -23 -7 7 7 37 17 37 5 0 9 -6 9 -14z m20 -21 c0
-8 -4 -15 -10 -15 -5 0 -7 7 -4 15 4 8 8 15 10 15 2 0 4 -7 4 -15z m-400 -71
c-12 -38 -25 -78 -30 -89 -67 -148 -74 -159 -78 -137 -5 34 110 313 124 300 2
-3 -5 -36 -16 -74z m446 36 c8 0 14 -9 14 -20 0 -11 -7 -20 -15 -20 -8 0 -15
7 -15 15 0 8 -7 15 -15 15 -13 0 -14 4 -3 23 10 19 13 20 16 5 2 -10 10 -18
18 -18z m-11752 4 c7 -19 -10 -44 -30 -44 -15 0 -18 18 -8 44 8 21 30 20 38 0z
m11617 -13 c-16 -29 -160 -155 -169 -147 -4 4 30 43 75 87 81 78 115 99 94 60z
m-11695 -33 c4 -15 1 -25 -12 -35 -26 -19 -41 -1 -26 32 14 31 28 32 38 3z
m11764 -168 c-2 -241 -18 -317 -35 -160 -13 120 -8 285 9 319 9 17 19 31 22
31 2 0 4 -85 4 -190z m-473 165 c8 -9 13 -18 10 -21 -9 -9 -48 16 -42 27 8 13
14 11 32 -6z m592 -1 c6 4 11 0 11 -8 0 -9 7 -16 15 -16 8 0 15 -5 15 -11 0
-14 82 -95 92 -91 4 1 8 -7 8 -18 0 -11 -7 -20 -16 -20 -8 0 -12 5 -9 10 3 6
-1 10 -9 10 -9 0 -16 5 -16 10 0 6 -7 10 -15 10 -8 0 -15 7 -15 15 0 8 -7 15
-16 15 -8 0 -13 4 -10 8 6 9 -29 42 -44 42 -6 0 -10 6 -10 14 0 8 -5 16 -12
18 -7 3 -8 10 -4 17 7 10 10 10 16 1 4 -7 13 -9 19 -6z m-11969 -54 c0 -11 -7
-20 -15 -20 -15 0 -21 21 -8 33 12 13 23 7 23 -13z m-786 -13 c8 -12 5 -21 -8
-36 -38 -42 -72 -12 -41 35 17 27 32 28 49 1z m11542 7 c-3 -9 -6 -29 -6 -44
0 -38 -35 -60 -57 -37 -13 13 -13 20 -2 50 11 33 20 39 63 46 4 0 5 -6 2 -15z
m-10845 -47 c-15 -15 -24 -2 -16 24 7 20 8 21 17 5 7 -12 7 -21 -1 -29z
m11112 6 c3 -16 2 -46 -2 -68 l-7 -40 -13 57 c-12 55 -9 78 8 78 5 0 11 -12
14 -27z m257 -23 c0 -27 -4 -50 -10 -50 -5 0 -10 23 -10 50 0 28 5 50 10 50 6
0 10 -22 10 -50z m-11448 -52 c-18 -18 -33 1 -21 24 11 20 12 20 21 4 7 -12 7
-21 0 -28z m12308 1 c0 -5 -4 -9 -10 -9 -5 0 -10 7 -10 16 0 8 5 12 10 9 6 -3
10 -10 10 -16z m-600 7 c0 -9 -162 -148 -167 -142 -3 3 7 16 23 28 16 12 51
44 78 70 43 42 66 57 66 44z m640 -26 c8 -11 19 -20 25 -20 6 0 17 -9 25 -20
8 -11 20 -20 27 -20 7 0 13 -5 13 -11 0 -14 25 -39 39 -39 6 0 11 -7 11 -15 0
-9 6 -12 15 -9 9 4 15 0 15 -9 0 -20 -22 -35 -28 -19 -2 7 -8 12 -14 12 -6 0
-25 16 -44 35 -18 19 -37 35 -43 35 -6 0 -16 9 -23 20 -7 11 -17 20 -21 20
-16 0 -39 31 -33 45 7 20 19 19 36 -5z m-12430 -14 c0 -8 -4 -18 -10 -21 -5
-3 -10 3 -10 14 0 12 5 21 10 21 6 0 10 -6 10 -14z m12280 9 c0 -12 -45 -91
-56 -98 -7 -4 -30 -34 -50 -67 -20 -33 -43 -60 -52 -60 -16 0 -9 13 50 94 34
47 30 56 -11 26 -31 -21 -39 -18 -21 10 5 8 5 19 0 25 -6 7 0 11 17 13 14 1
44 15 66 32 38 28 57 36 57 25z m-286 -52 c-3 -21 -10 -42 -15 -47 -5 -6 -9
-21 -9 -33 0 -13 -8 -40 -19 -61 -10 -20 -24 -55 -31 -77 -7 -22 -16 -44 -21
-49 -17 -19 -20 3 -6 51 16 50 83 229 93 244 11 19 15 8 8 -28z m365 -140 c1
-62 4 -113 9 -113 4 0 16 6 27 13 66 45 78 48 35 9 -25 -23 -49 -41 -53 -42
-5 0 -6 -51 -3 -112 20 -395 19 -568 -4 -568 -12 0 -20 72 -25 260 -3 96 -11
198 -17 225 -17 75 -17 422 1 460 l14 30 7 -25 c5 -14 8 -76 9 -137z m-12437
122 c0 -5 -5 -11 -11 -13 -6 -2 -11 4 -11 13 0 9 5 15 11 13 6 -2 11 -8 11
-13z m11878 -125 c0 -59 -4 -101 -11 -105 -15 -10 -17 -6 -24 60 -4 33 -7 62
-8 65 -2 18 26 90 33 85 6 -4 10 -51 10 -105z m-11955 59 c-10 -15 -25 -10
-19 6 4 8 10 12 15 9 5 -3 7 -10 4 -15z m11695 -56 c0 -7 -6 -13 -13 -13 -8 0
-24 -11 -37 -25 -30 -32 -37 -25 -14 12 33 52 47 65 56 51 4 -7 8 -19 8 -25z
m-11779 4 c-13 -13 -26 -3 -16 12 3 6 11 8 17 5 6 -4 6 -10 -1 -17z m12925
-17 c8 0 14 -6 14 -14 0 -13 27 -31 43 -28 4 1 7 -2 7 -8 0 -5 6 -10 13 -10 7
0 19 -9 27 -20 8 -11 18 -20 23 -20 9 0 37 -25 37 -34 0 -18 -51 -2 -78 24
-18 17 -36 30 -42 30 -5 0 -10 4 -10 9 0 5 -10 13 -22 17 -28 8 -48 28 -48 47
0 18 14 31 18 18 2 -6 10 -11 18 -11z m-1148 -88 c-3 -18 -5 -19 -22 -7 -16
12 -17 17 -6 30 16 19 33 6 28 -23z m1060 -196 c-1 -118 -6 -218 -10 -222 -4
-4 -14 -1 -22 6 -12 10 -14 30 -10 103 3 51 2 110 -3 132 -11 51 14 195 35
195 11 0 13 -36 10 -214z m-343 162 c-22 -116 -76 -313 -94 -347 -19 -35 -34
-25 -26 17 8 46 93 319 106 344 15 28 21 21 14 -14z m490 -8 c7 -12 -2 -12
-30 0 -19 8 -19 9 2 9 12 1 25 -3 28 -9z m-699 -135 c-1 -55 -4 -70 -16 -70
-12 0 -15 16 -15 80 0 44 4 89 9 100 8 18 10 17 16 -10 4 -16 6 -61 6 -100z
m-13466 91 c0 -16 -18 -31 -27 -22 -8 8 5 36 17 36 5 0 10 -6 10 -14z m589 0
c18 -21 -20 -39 -64 -30 -41 7 -44 15 -12 30 32 16 63 16 76 0z m13641 -6 c0
-11 -59 -44 -66 -37 -6 6 45 47 57 47 5 0 9 -4 9 -10z m-12460 -9 c0 -18 -75
-43 -137 -47 -60 -4 -79 5 -50 23 29 19 187 39 187 24z m990 -36 c0 -22 -65
-45 -126 -45 -93 0 -75 32 28 49 81 13 98 13 98 -4z m-1993 -92 c-24 -24 -44
-4 -27 27 11 21 13 21 28 6 15 -15 15 -17 -1 -33z m107 22 c5 -15 -18 -45 -35
-45 -10 0 -12 21 -3 44 8 20 30 21 38 1z m96 -10 c0 -14 -2 -25 -4 -25 -2 0
-11 -3 -20 -6 -12 -5 -16 0 -16 19 0 23 10 34 33 36 4 1 7 -10 7 -24z m97 9
c8 -21 -23 -52 -38 -37 -8 8 -8 17 0 32 14 25 29 27 38 5z m12849 -161 c-19
-81 -42 -187 -52 -235 -17 -92 -43 -148 -44 -98 0 22 102 460 117 500 5 13 7
12 10 -2 2 -9 -12 -83 -31 -165z m-12748 145 c2 -10 -6 -19 -18 -23 -27 -9
-34 -2 -25 25 8 24 38 23 43 -2z m90 0 c-4 -29 -38 -38 -38 -10 0 22 8 32 27
32 9 0 13 -8 11 -22z m110 0 c-4 -29 -38 -38 -38 -10 0 22 8 32 27 32 9 0 13
-8 11 -22z m3662 12 c0 -20 -65 -50 -107 -50 -42 0 -63 13 -42 26 17 10 100
32 127 33 12 1 22 -4 22 -9z m-3567 -14 c8 -19 -20 -43 -34 -29 -12 12 -1 43
16 43 7 0 15 -6 18 -14z m92 -12 c0 -10 -8 -20 -17 -22 -18 -3 -26 27 -11 42
12 11 28 0 28 -20z m95 7 c0 -10 -7 -24 -15 -31 -12 -10 -16 -9 -21 4 -6 16
11 46 27 46 5 0 9 -8 9 -19z m90 -6 c0 -18 -5 -25 -20 -25 -24 0 -26 13 -4 34
21 21 24 20 24 -9z m95 4 c9 -28 -25 -53 -40 -29 -7 11 12 50 25 50 5 0 12
-10 15 -21z m11886 -50 l-9 -34 -1 46 c-1 25 2 49 7 53 12 12 14 -29 3 -65z
m-11796 51 c7 -12 -12 -40 -26 -40 -5 0 -9 11 -9 25 0 25 23 35 35 15z m92 -6
c3 -9 0 -20 -8 -25 -21 -13 -29 -11 -29 9 0 33 26 44 37 16z m91 -11 c2 -12
-4 -23 -14 -27 -23 -9 -28 -2 -20 29 8 30 29 29 34 -2z m-1426 -15 c-15 -15
-26 -4 -18 18 5 13 9 15 18 6 9 -9 9 -15 0 -24z m1515 16 c3 -9 0 -20 -8 -25
-21 -13 -29 -11 -29 9 0 33 26 44 37 16z m99 1 c6 -16 -12 -45 -27 -45 -10 0
-12 44 -2 53 11 11 23 8 29 -8z m11241 -77 c-2 -18 -4 -4 -4 32 0 36 2 50 4
33 2 -18 2 -48 0 -65z m-11153 67 c3 -9 -3 -19 -14 -25 -17 -9 -20 -7 -20 15
0 27 24 35 34 10z m86 -5 c0 -11 -2 -20 -4 -20 -2 0 -11 -3 -20 -6 -11 -4 -16
0 -16 13 0 23 8 33 27 33 7 0 13 -9 13 -20z m85 -6 c0 -10 -8 -20 -17 -22 -18
-3 -26 27 -11 42 12 11 28 0 28 -20z m89 10 c8 -21 -1 -34 -25 -34 -21 0 -25
20 -7 38 16 16 25 15 32 -4z m86 -15 c0 -10 -2 -19 -4 -19 -2 0 -11 -3 -20 -6
-19 -7 -22 26 -4 44 15 15 28 6 28 -19z m80 1 c0 -11 -7 -20 -15 -20 -15 0
-21 21 -8 33 12 13 23 7 23 -13z m90 -10 c0 -23 -29 -35 -36 -15 -7 18 14 47
27 39 5 -3 9 -13 9 -24z m318 8 c-2 -13 -11 -24 -20 -26 -21 -4 -24 18 -6 36
19 19 30 14 26 -10z m80 -5 c-4 -32 -38 -46 -38 -16 0 20 18 43 33 43 4 0 7
-12 5 -27z m2187 17 c3 -5 17 -10 30 -10 13 0 27 -5 31 -12 5 -8 2 -9 -10 -5
-10 4 -23 7 -30 7 -16 0 -55 29 -39 30 6 0 15 -4 18 -10z m-2505 -19 c0 -24
-18 -37 -31 -24 -13 13 -1 43 17 43 8 0 14 -9 14 -19z m82 7 c7 -19 -2 -38
-18 -38 -8 0 -14 8 -14 18 0 30 23 44 32 20z m78 -18 c0 -18 -23 -34 -34 -23
-11 11 -6 41 7 46 17 6 27 -1 27 -23z m244 15 c7 -19 -23 -50 -36 -37 -6 6 -6
18 1 31 14 25 27 27 35 6z m76 -10 c0 -18 -5 -25 -20 -25 -23 0 -24 4 -10 31
15 27 30 24 30 -6z m3878 9 c30 -21 28 -48 -9 -78 -30 -26 -36 -28 -74 -30
-14 -1 -19 -7 -18 -21 1 -19 -12 -35 -30 -35 -5 0 -6 14 -2 30 4 17 2 30 -3
30 -5 0 -17 12 -27 26 -20 31 -13 42 50 73 49 25 83 26 113 5z m-3798 -13 c0
-20 -26 -36 -35 -21 -8 13 6 40 21 40 8 0 14 -9 14 -19z m80 0 c0 -20 -26 -36
-35 -21 -8 13 6 40 21 40 8 0 14 -9 14 -19z m80 -6 c0 -15 -6 -25 -14 -25 -22
0 -30 19 -16 35 18 22 30 18 30 -10z m80 -5 c0 -20 -26 -35 -35 -20 -8 13 14
52 26 45 5 -4 9 -14 9 -25z m73 6 c5 -14 -10 -36 -25 -36 -4 0 -8 8 -8 18 0
31 23 44 33 18z m3162 -3 c15 6 32 -10 21 -20 -8 -8 -66 18 -66 29 0 6 6 5 15
-2 8 -7 21 -10 30 -7z m-6395 -24 c0 -12 -7 -19 -20 -19 -22 0 -29 35 -7 43
18 6 27 -2 27 -24z m3388 13 c2 -7 -4 -15 -13 -18 -20 -8 -27 -1 -19 20 7 18
25 17 32 -2z m77 8 c7 -12 -12 -40 -26 -40 -10 0 -12 34 -2 43 9 10 21 9 28
-3z m75 -9 c0 -24 -18 -37 -32 -23 -8 8 -7 16 2 27 17 21 30 19 30 -4z m70 -6
c0 -8 -7 -15 -15 -15 -9 0 -12 6 -9 15 4 8 10 15 15 15 5 0 9 -7 9 -15z m90 0
c0 -8 -7 -15 -15 -15 -8 0 -15 7 -15 15 0 8 7 15 15 15 8 0 15 -7 15 -15z m70
1 c0 -8 -4 -18 -10 -21 -5 -3 -10 3 -10 14 0 12 5 21 10 21 6 0 10 -6 10 -14z
m80 0 c0 -16 -18 -31 -27 -22 -8 8 5 36 17 36 5 0 10 -6 10 -14z m75 4 c7 -12
-12 -40 -26 -40 -10 0 -12 34 -2 43 9 10 21 9 28 -3z m72 -24 c-8 -19 -37 -21
-37 -3 0 7 5 18 12 25 15 15 33 -1 25 -22z m68 4 c0 -7 -6 -15 -12 -17 -8 -3
-13 4 -13 17 0 13 5 20 13 18 6 -3 12 -11 12 -18z m75 6 c0 -16 -18 -31 -27
-22 -8 8 5 36 17 36 5 0 10 -6 10 -14z m214 -2 c8 -20 -1 -34 -20 -34 -8 0
-14 8 -14 18 0 33 23 44 34 16z m68 -36 c-11 -11 -32 -3 -32 12 0 5 8 16 18
26 16 17 17 17 20 -5 2 -13 -1 -28 -6 -33z m-212 28 c0 -16 -18 -31 -27 -22
-8 8 5 36 17 36 5 0 10 -6 10 -14z m70 -1 c0 -8 -4 -15 -10 -15 -5 0 -10 7
-10 15 0 8 5 15 10 15 6 0 10 -7 10 -15z m218 -7 c-4 -27 -28 -36 -28 -10 0
20 8 32 22 32 5 0 8 -10 6 -22z m70 0 c-4 -27 -28 -36 -28 -10 0 20 8 32 22
32 5 0 8 -10 6 -22z m72 -3 c0 -18 -5 -25 -20 -25 -22 0 -26 20 -8 38 19 19
28 14 28 -13z m70 -5 c0 -23 -29 -35 -36 -15 -7 18 14 47 27 39 5 -3 9 -13 9
-24z m134 11 c9 -14 -4 -41 -20 -41 -15 0 -17 10 -8 34 7 18 20 21 28 7z m64
-13 c-4 -27 -28 -36 -28 -10 0 20 8 32 22 32 5 0 8 -10 6 -22z m72 2 c0 -20
-25 -38 -36 -27 -8 7 15 47 26 47 6 0 10 -9 10 -20z m7655 0 c14 -43 -22 -84
-51 -59 -17 14 -18 51 -2 67 18 18 46 14 53 -8z m-7866 -31 c-21 -12 -35 7
-19 26 12 15 14 15 23 -1 6 -11 5 -19 -4 -25z m278 25 c7 -18 -17 -38 -30 -25
-9 9 1 41 14 41 5 0 12 -7 16 -16z m71 -6 c-4 -27 -28 -36 -28 -10 0 20 8 32
22 32 5 0 8 -10 6 -22z m70 -1 c2 -10 -4 -20 -13 -23 -21 -9 -28 0 -20 26 8
24 28 22 33 -3z m-5270 -9 c3 -16 -24 -32 -39 -22 -13 8 10 46 24 41 7 -2 13
-11 15 -19z m5332 2 c0 -11 -7 -20 -15 -20 -15 0 -21 21 -8 33 12 13 23 7 23
-13z m70 1 c0 -20 -26 -36 -35 -21 -8 13 6 40 21 40 8 0 14 -9 14 -19z m63 5
c5 -14 -10 -36 -25 -36 -4 0 -8 8 -8 18 0 31 23 44 33 18z m64 -2 c7 -18 -17
-38 -30 -25 -9 9 1 41 14 41 5 0 12 -7 16 -16z m128 -24 c-7 -11 -35 -14 -35
-4 0 3 5 15 11 26 10 19 12 20 21 5 5 -10 6 -22 3 -27z m-65 9 c0 -5 -7 -9
-15 -9 -15 0 -20 12 -9 23 8 8 24 -1 24 -14z m130 6 c0 -15 -26 -32 -36 -23
-2 3 -2 13 2 22 8 20 34 21 34 1z m52 -17 c-15 -15 -24 -6 -16 16 5 12 10 14
17 7 8 -8 8 -14 -1 -23z m7417 -71 c-1 -138 -15 -152 -24 -25 -4 59 -4 112 0
118 16 26 25 -8 24 -93z m-7348 70 c-13 -13 -26 -3 -16 12 3 6 11 8 17 5 6 -4
6 -10 -1 -17z m129 9 c0 -17 -14 -29 -23 -20 -8 8 3 34 14 34 5 0 9 -6 9 -14z
m65 -7 c0 -7 -8 -15 -17 -17 -18 -3 -25 18 -11 32 10 10 28 1 28 -15z m63 3
c2 -7 -4 -15 -13 -18 -20 -8 -27 -1 -19 20 7 18 25 17 32 -2z m51 -23 c-20
-12 -30 0 -18 23 11 20 12 20 21 3 8 -12 7 -20 -3 -26z m66 1 c-7 -11 -35 -14
-35 -4 0 3 5 15 11 26 10 19 12 20 21 5 5 -10 6 -22 3 -27z m-305 26 c0 -3 -4
-8 -10 -11 -5 -3 -10 -1 -10 4 0 6 5 11 10 11 6 0 10 -2 10 -4z m367 -12 c7
-18 -17 -38 -31 -24 -11 11 -1 40 14 40 6 0 13 -7 17 -16z m58 6 c9 -15 -16
-43 -27 -32 -10 10 0 42 12 42 5 0 12 -5 15 -10z m53 -28 c-7 -8 -14 -10 -21
-3 -7 7 -6 15 3 26 10 12 15 13 21 3 4 -7 3 -18 -3 -26z m72 13 c0 -17 -17
-28 -30 -20 -7 4 -7 13 0 26 12 21 30 17 30 -6z m57 -9 c-8 -19 -37 -21 -37
-3 0 7 5 18 12 25 15 15 33 -1 25 -22z m61 11 c2 -10 -4 -20 -13 -23 -21 -9
-28 0 -20 26 8 24 28 22 33 -3z m56 6 c7 -17 -19 -52 -30 -40 -9 8 4 57 15 57
5 0 12 -8 15 -17z m121 -23 c0 -8 -8 -16 -17 -18 -13 -2 -18 3 -18 18 0 15 5
20 18 18 9 -2 17 -10 17 -18z m53 3 c-5 -25 -28 -28 -28 -4 0 12 6 21 16 21 9
0 14 -7 12 -17z m50 -21 c-7 -8 -14 -10 -21 -3 -7 7 -6 15 3 26 10 12 15 13
21 3 4 -7 3 -18 -3 -26z m62 8 c0 -11 -7 -20 -15 -20 -17 0 -18 2 -9 24 9 23
24 20 24 -4z m-7005 -11 c0 -7 -8 -15 -17 -17 -18 -3 -25 18 -11 32 10 10 28
1 28 -15z m7051 -6 c-10 -10 -19 5 -10 18 6 11 8 11 12 0 2 -7 1 -15 -2 -18z
m64 7 c0 -11 -7 -20 -15 -20 -17 0 -18 2 -9 24 9 23 24 20 24 -4z m1944 11
c10 -16 -42 -42 -69 -35 -30 7 -26 14 18 30 42 15 45 16 51 5z m-1898 -28
c-10 -10 -19 5 -10 18 6 11 8 11 12 0 2 -7 1 -15 -2 -18z m178 12 c3 -9 -1
-18 -10 -22 -19 -7 -26 0 -18 21 8 20 20 21 28 1z m45 -26 c-18 -11 -22 -5
-14 22 7 20 8 21 17 4 8 -12 7 -20 -3 -26z m1984 29 c15 -7 27 -16 27 -20 0
-13 -44 -8 -62 6 -36 27 -12 35 35 14z m-2093 -8 c0 -5 -4 -10 -10 -10 -5 0
-10 5 -10 10 0 6 5 10 10 10 6 0 10 -4 10 -10z m230 -16 c0 -8 -9 -14 -20 -14
-18 0 -19 3 -10 20 12 22 30 18 30 -6z m100 6 c0 -11 -7 -20 -15 -20 -17 0
-18 2 -9 24 9 23 24 20 24 -4z m55 -20 c-3 -6 -10 -10 -16 -10 -10 0 -12 33
-2 44 9 9 26 -22 18 -34z m-105 9 c0 -5 -7 -9 -15 -9 -15 0 -20 12 -9 23 8 8
24 -1 24 -14z m160 -5 c0 -8 -7 -14 -15 -14 -15 0 -21 21 -9 33 10 9 24 -2 24
-19z m50 0 c0 -8 -7 -14 -15 -14 -17 0 -18 2 -9 24 7 18 24 12 24 -10z m50 -5
c0 -5 -7 -9 -15 -9 -15 0 -20 12 -9 23 8 8 24 -1 24 -14z m54 6 c3 -9 -1 -18
-10 -22 -19 -7 -26 0 -18 21 8 20 20 21 28 1z m46 -5 c0 -11 -7 -20 -15 -20
-15 0 -21 21 -8 33 12 13 23 7 23 -13z m50 -5 c0 -7 -7 -15 -15 -19 -15 -5
-22 24 -9 37 9 9 24 -2 24 -18z m40 0 c0 -8 -7 -15 -15 -15 -9 0 -12 6 -9 15
4 8 10 15 15 15 5 0 9 -7 9 -15z m58 -3 c2 -7 -4 -15 -13 -18 -20 -8 -27 -1
-19 20 7 18 25 17 32 -2z m46 3 c3 -9 -1 -18 -10 -22 -19 -7 -26 0 -18 21 8
20 20 21 28 1z m50 -17 c-7 -10 -34 -10 -34 0 0 4 5 13 12 20 9 9 14 9 19 0 4
-7 5 -16 3 -20z m102 -7 c-9 -13 -36 -15 -36 -2 0 5 3 17 6 26 6 15 8 15 22 2
8 -8 11 -20 8 -26z m-56 14 c0 -8 -4 -15 -10 -15 -5 0 -10 7 -10 15 0 8 5 15
10 15 6 0 10 -7 10 -15z m100 -5 c0 -11 -7 -20 -15 -20 -15 0 -21 21 -8 33 12
13 23 7 23 -13z m60 -12 c0 -5 -7 -8 -15 -8 -15 0 -20 21 -8 33 7 7 23 -11 23
-25z m64 18 c12 16 13 16 19 0 10 -26 1 -34 -35 -31 -18 2 -34 3 -36 4 -1 1 2
11 9 23 10 19 12 20 21 4 9 -16 10 -16 22 0z m66 -16 c0 -11 -7 -20 -15 -20
-17 0 -18 2 -9 24 9 23 24 20 24 -4z m50 0 c0 -11 -7 -20 -15 -20 -15 0 -21
21 -8 33 12 13 23 7 23 -13z m42 -12 c-15 -15 -26 -4 -18 18 5 13 9 15 18 6 9
-9 9 -15 0 -24z m44 -5 c-11 -11 -19 6 -11 24 8 17 8 17 12 0 3 -10 2 -21 -1
-24z m4881 -70 c-2 -21 -4 -4 -4 37 0 41 2 58 4 38 2 -21 2 -55 0 -75z m-4777
76 c0 -5 -7 -9 -15 -9 -15 0 -20 12 -9 23 8 8 24 -1 24 -14z m40 -13 c-15 -15
-33 4 -19 20 10 12 14 12 20 2 5 -7 4 -17 -1 -22z m108 12 c-4 -27 -28 -36
-28 -10 0 20 8 32 22 32 5 0 8 -10 6 -22z m4713 -164 c11 -165 10 -377 -3
-390 -17 -16 -22 13 -31 159 -10 164 -1 431 14 405 4 -8 13 -87 20 -174z
m-4916 166 c3 -5 1 -10 -4 -10 -6 0 -11 5 -11 10 0 6 2 10 4 10 3 0 8 -4 11
-10z m155 -5 c0 -8 -4 -15 -10 -15 -5 0 -10 7 -10 15 0 8 5 15 10 15 6 0 10
-7 10 -15z m98 -2 c-5 -25 -28 -28 -28 -4 0 12 6 21 16 21 9 0 14 -7 12 -17z
m47 -4 c0 -7 -8 -15 -17 -17 -18 -3 -25 18 -11 32 10 10 28 1 28 -15z m45 -5
c0 -8 -7 -14 -15 -14 -17 0 -18 2 -9 24 7 18 24 12 24 -10z m90 1 c0 -15 -18
-30 -27 -22 -2 3 -2 15 2 26 7 23 25 19 25 -4z m4639 -125 c-3 -78 -8 -123
-16 -132 -10 -9 -13 -7 -13 12 0 14 -4 32 -9 39 -11 17 -9 24 -45 -155 -14
-66 -28 -132 -31 -147 -11 -41 -27 -32 -20 11 24 143 72 365 106 486 19 69 31
18 28 -114z m-4689 125 c0 -8 -4 -15 -10 -15 -5 0 -10 7 -10 15 0 8 5 15 10
15 6 0 10 -7 10 -15z m98 -2 c-5 -25 -28 -28 -28 -4 0 12 6 21 16 21 9 0 14
-7 12 -17z m42 -3 c0 -11 -7 -20 -15 -20 -15 0 -21 21 -8 33 12 13 23 7 23
-13z m36 -17 c-11 -11 -19 6 -11 24 8 17 8 17 12 0 3 -10 2 -21 -1 -24z m53
-4 c-20 -12 -30 0 -18 23 11 20 12 20 21 3 8 -12 7 -20 -3 -26z m51 11 c0 -11
-7 -20 -15 -20 -15 0 -21 21 -8 33 12 13 23 7 23 -13z m45 -1 c0 -7 -8 -15
-17 -17 -12 -2 -15 2 -11 18 6 23 28 22 28 -1z m45 -5 c0 -8 -7 -14 -15 -14
-17 0 -18 2 -9 24 7 18 24 12 24 -10z m40 1 c0 -8 -4 -15 -10 -15 -5 0 -10 7
-10 15 0 8 5 15 10 15 6 0 10 -7 10 -15z m256 -22 c-10 -10 -19 5 -10 18 6 11
8 11 12 0 2 -7 1 -15 -2 -18z m94 1 c0 -8 -7 -14 -15 -14 -17 0 -18 2 -9 24 7
18 24 12 24 -10z m-53 -6 c-3 -8 -6 -5 -6 6 -1 11 2 17 5 13 3 -3 4 -12 1 -19z
m93 1 c0 -5 -7 -9 -15 -9 -9 0 -12 6 -9 15 6 15 24 11 24 -6z m40 1 c0 -11 -4
-20 -10 -20 -5 0 -10 9 -10 20 0 11 5 20 10 20 6 0 10 -9 10 -20z m44 -12 c-3
-4 -12 -8 -20 -8 -12 0 -13 4 -3 21 9 17 13 19 19 8 5 -7 6 -17 4 -21z m32 -5
c-11 -11 -17 4 -9 23 7 18 8 18 11 1 2 -10 1 -21 -2 -24z m45 -6 c-15 -15 -24
-2 -16 24 7 20 8 21 17 5 7 -12 7 -21 -1 -29z m-10199 18 c0 -5 -5 -11 -11
-13 -6 -2 -11 4 -11 13 0 9 5 15 11 13 6 -2 11 -8 11 -13z m10238 -19 c-14
-14 -22 -2 -14 18 5 14 9 15 15 4 4 -7 4 -17 -1 -22z m50 8 c0 -8 -7 -14 -15
-14 -17 0 -18 2 -9 24 7 18 24 12 24 -10z m39 -15 c-20 -12 -30 0 -18 23 11
20 12 20 21 3 8 -12 7 -20 -3 -26z m44 17 c6 -15 -1 -26 -15 -26 -4 0 -8 9 -8
20 0 23 15 27 23 6z m33 -12 c-4 -9 -9 -15 -11 -12 -3 3 -3 13 1 22 4 9 9 15
11 12 3 -3 3 -13 -1 -22z m239 -3 c3 -5 1 -12 -5 -16 -5 -3 -10 1 -10 9 0 18
6 21 15 7z m45 -6 c0 -8 -4 -15 -10 -15 -5 0 -10 7 -10 15 0 8 5 15 10 15 6 0
10 -7 10 -15z m43 3 c4 -10 8 -9 17 2 10 13 12 13 22 -2 11 -15 13 -15 25 0
11 16 12 16 13 0 0 -19 20 -26 20 -8 0 6 5 10 10 10 6 0 10 -9 10 -21 0 -17
-4 -20 -27 -15 -16 4 -47 7 -70 8 -35 1 -43 5 -43 20 0 20 16 24 23 6z m157
-9 c0 -8 5 -8 15 1 12 10 16 9 21 -4 6 -15 8 -15 20 1 12 17 13 17 14 -5 0
-20 -4 -22 -50 -20 -46 2 -61 13 -43 31 10 11 23 8 23 -4z m127 -8 c12 10 16
10 23 0 5 -9 9 -10 14 -2 9 14 26 5 26 -14 0 -11 -12 -13 -52 -10 -29 2 -54 4
-56 4 -1 1 3 11 10 24 11 19 13 20 16 4 3 -15 6 -16 19 -6z m103 -7 c0 -13 3
-14 14 -5 11 9 15 9 19 -1 4 -10 8 -10 17 2 9 12 13 12 17 2 4 -10 8 -10 20
-1 11 10 16 10 23 0 6 -11 9 -11 15 -1 6 10 11 9 20 -4 12 -15 13 -15 19 1 6
14 9 15 16 3 7 -11 11 -11 24 -1 14 11 16 11 17 -5 0 -11 3 -14 6 -6 2 6 11
12 19 12 8 0 14 -6 15 -12 0 -10 2 -10 6 0 7 19 23 14 23 -7 0 -19 -7 -19
-141 -16 -78 3 -144 7 -146 9 -3 3 -11 2 -19 -1 -15 -6 -18 6 -8 31 8 21 24
21 24 0z m-11200 -28 c-14 -14 -24 0 -16 21 6 15 8 15 16 3 6 -9 5 -19 0 -24z
m11546 11 c13 17 13 17 14 -1 0 -12 5 -16 15 -12 8 3 15 1 15 -4 0 -10 -27
-14 -65 -10 -26 3 -27 4 -19 25 6 16 8 16 16 0 9 -15 11 -15 24 2z m150 -34
c-10 -10 -19 5 -10 18 6 11 8 11 12 0 2 -7 1 -15 -2 -18z m70 -10 c-11 -11
-17 4 -9 23 7 18 8 18 11 1 2 -10 1 -21 -2 -24z m98 24 c4 4 11 1 16 -7 6 -9
10 -10 10 -3 0 12 32 11 64 -2 12 -5 21 -3 27 6 7 11 11 11 17 1 5 -7 16 -10
25 -6 13 4 17 1 17 -14 0 -16 -6 -20 -29 -20 -15 1 -33 -2 -38 -5 -6 -4 -24
-2 -39 3 -26 8 -87 17 -136 19 -11 1 -15 6 -12 16 5 11 10 13 19 5 9 -8 14 -6
19 6 5 12 9 14 20 5 7 -6 16 -8 20 -4z m-129 -7 c3 -5 1 -10 -4 -10 -6 0 -11
5 -11 10 0 6 2 10 4 10 3 0 8 -4 11 -10z m443 -15 c34 0 62 -3 62 -8 0 -5 7
-4 15 3 8 7 15 8 15 3 0 -5 14 -9 30 -8 17 1 33 -2 36 -6 2 -5 11 -6 19 -2 10
3 15 -1 15 -12 0 -16 -10 -17 -122 -11 -138 7 -168 13 -168 30 0 18 12 27 24
18 6 -4 39 -8 74 -7z m-12258 -19 c0 -8 -4 -18 -10 -21 -5 -3 -10 3 -10 14 0
12 5 21 10 21 6 0 10 -6 10 -14z m12525 -6 c9 7 15 8 19 1 4 -6 13 -8 21 -4
10 3 15 -2 15 -16 0 -15 -6 -21 -22 -21 -35 0 -98 20 -98 30 0 15 20 12 20 -2
0 -7 6 -4 12 7 8 13 13 15 16 7 3 -9 7 -10 17 -2z m809 1 c3 -4 -1 -17 -9 -27
-25 -33 -17 -39 58 -40 39 -1 99 -4 132 -7 33 -3 84 -6 113 -6 40 -1 52 -5 52
-17 0 -8 5 -12 10 -9 6 4 10 -5 10 -19 0 -14 -4 -26 -10 -26 -5 0 -10 4 -10 8
0 5 -66 14 -147 20 -82 6 -227 18 -323 26 -96 8 -226 17 -289 21 -63 3 -117 8
-121 10 -4 2 -43 7 -86 10 -108 8 -124 12 -123 33 0 10 3 12 6 4 2 -6 10 -9
16 -5 18 12 117 12 117 1 0 -6 7 -8 15 -4 8 3 15 1 15 -5 0 -6 5 -7 11 -3 9 5
103 9 112 4 5 -4 129 -10 215 -12 50 -1 92 -4 92 -8 0 -12 44 -4 48 9 5 15 61
51 79 51 6 0 14 -4 17 -9z m-13433 -74 c-8 -8 -11 -7 -11 4 0 20 13 34 18 19
3 -7 -1 -17 -7 -23z m-571 -62 c0 -8 -4 -15 -10 -15 -5 0 -10 7 -10 15 0 8 5
15 10 15 6 0 10 -7 10 -15z m510 7 c0 -13 -12 -22 -22 -16 -10 6 -1 24 13 24
5 0 9 -4 9 -8z m-405 -62 c-5 -8 -11 -8 -17 -2 -6 6 -7 16 -3 22 5 8 11 8 17
2 6 -6 7 -16 3 -22z m14289 22 c2 -4 1 -14 -4 -21 -10 -17 -31 -5 -23 14 6 16
19 20 27 7z m-13976 -19 c-5 -25 -28 -28 -28 -4 0 12 6 21 16 21 9 0 14 -7 12
-17z m14002 -28 c0 -17 -17 -28 -30 -20 -7 4 -7 13 0 26 12 21 30 17 30 -6z
m-14100 -21 c0 -8 -7 -14 -15 -14 -15 0 -21 21 -9 33 10 9 24 -2 24 -19z
m14178 -91 c16 -35 15 -43 -3 -43 -8 0 -15 5 -15 11 0 7 -7 17 -17 24 -9 7
-13 17 -9 23 12 20 30 13 44 -15z m-4460 -24 c-2 -6 -8 -10 -13 -10 -5 0 -11
4 -13 10 -2 6 4 11 13 11 9 0 15 -5 13 -11z m4852 -3 c0 -18 -18 -32 -54 -40
-27 -7 -28 -6 -16 11 32 41 70 57 70 29z m-14270 -169 c11 3 27 2 37 -1 14 -6
13 -10 -12 -26 -36 -24 -95 -26 -136 -5 -39 20 -29 35 24 35 31 0 38 -3 27
-10 -13 -9 -13 -11 0 -19 19 -13 30 -5 31 22 0 12 3 17 5 11 3 -7 14 -10 24
-7z m100 -2 c0 -8 -4 -15 -9 -15 -13 0 -22 16 -14 24 11 11 23 6 23 -9z m90
-5 c8 -5 11 -12 7 -16 -13 -14 15 -34 39 -28 15 4 24 2 24 -5 0 -7 -22 -11
-56 -11 -47 0 -55 3 -50 16 3 9 6 24 6 35 0 21 8 23 30 9z m-75 -40 c3 -5 -3
-10 -14 -10 -11 0 -23 5 -26 10 -3 6 3 10 14 10 11 0 23 -4 26 -10z m-197 -59
c3 -8 -1 -12 -9 -9 -7 2 -15 10 -17 17 -3 8 1 12 9 9 7 -2 15 -10 17 -17z
m-98 0 c0 -12 -29 -23 -42 -15 -6 4 -5 10 3 15 18 11 39 11 39 0z m1488 -53
c2 -12 -5 -16 -32 -16 -20 0 -36 4 -36 9 0 5 7 9 15 9 8 0 15 5 15 11 0 17 34
6 38 -13z m310 -1 c2 -10 -3 -17 -12 -17 -18 0 -29 16 -21 31 9 14 29 6 33
-14z m2026 -39 c9 -36 7 -78 -4 -78 -5 0 -13 0 -17 0 -9 0 -15 69 -8 88 7 19
22 14 29 -10z m91 -10 c11 -28 15 -30 21 -15 4 12 13 17 26 14 11 -3 22 2 28
14 10 18 60 28 60 12 0 -16 48 -31 60 -19 8 8 13 7 20 -4 11 -18 3 -31 -18
-29 -37 3 -52 -2 -52 -18 0 -13 3 -14 12 -5 16 16 28 15 28 -2 0 -21 -17 -29
-70 -32 l-46 -2 4 34 c2 19 0 34 -4 34 -17 0 -32 -15 -35 -35 -5 -24 -39 -34
-39 -11 0 9 -6 13 -14 10 -22 -8 -38 29 -26 60 13 35 28 33 45 -6z m483 -17
c-2 -8 -11 -19 -21 -25 -14 -9 -21 -7 -32 7 -13 17 -14 17 -23 1 -5 -10 -23
-19 -38 -21 -16 -1 -36 -3 -44 -4 -28 -4 -60 1 -60 9 0 4 19 22 41 41 38 32
42 33 52 16 9 -18 10 -18 23 0 11 15 16 16 28 5 13 -10 19 -9 33 5 16 16 17
16 30 -1 8 -10 12 -25 11 -33z m250 17 c18 -18 15 -25 -14 -32 -31 -8 -49 5
-41 28 7 19 38 21 55 4z m-458 -8 c0 -5 -2 -10 -4 -10 -3 0 -8 5 -11 10 -3 6
-1 10 4 10 6 0 11 -4 11 -10z m346 -44 c-5 -19 -13 -26 -30 -26 -28 0 -40 24
-26 50 22 42 68 23 56 -24z m1729 -25 c-11 -12 -20 -13 -32 -5 -26 16 -26 30
-2 53 l22 20 14 -26 c12 -23 12 -29 -2 -42z m-1402 39 c4 -14 -2 -25 -18 -36
-30 -19 -48 -10 -39 19 12 40 48 50 57 17z m220 1 c3 -11 -1 -31 -8 -44 -9
-17 -10 -28 -3 -35 12 -12 2 -32 -16 -32 -17 0 -39 66 -30 93 12 39 48 50 57
18z m-477 -40 c-11 -18 -36 -13 -36 7 0 10 3 22 7 26 10 10 37 -20 29 -33z
m139 22 c3 -10 1 -19 -4 -21 -6 -2 -11 -10 -11 -18 0 -21 -18 -17 -30 7 -9 15
-8 24 1 35 16 19 35 18 44 -3z m982 1 c3 -8 1 -20 -6 -27 -8 -8 -11 -8 -11 2
0 8 -6 11 -15 7 -12 -4 -13 -2 -2 14 14 24 26 25 34 4z m105 -36 c-12 -12 -42
-4 -42 11 0 5 8 17 17 27 16 16 18 15 27 -5 6 -15 6 -25 -2 -33z m279 31 c13
-25 3 -37 -31 -41 -28 -3 -39 24 -20 47 17 21 37 18 51 -6z m252 -15 c-6 -16
-39 -19 -48 -5 -3 5 2 17 11 26 19 18 47 3 37 -21z m1456 4 c14 -24 14 -29 0
-45 -11 -12 -17 -42 -18 -98 -3 -102 -23 -122 -34 -32 -11 92 -12 93 -30 111
-20 20 -22 67 -5 84 22 22 71 10 87 -20z m-3159 6 c0 -2 -7 -4 -15 -4 -8 0
-15 4 -15 10 0 5 7 7 15 4 8 -4 15 -8 15 -10z m1794 0 c5 -13 9 -14 21 -4 9 7
18 10 22 7 3 -4 12 -2 19 4 20 16 38 -25 24 -52 -7 -11 -9 -26 -7 -33 9 -22
-7 -34 -36 -29 -28 6 -33 27 -6 29 31 3 33 5 19 13 -8 5 -25 12 -37 15 -19 6
-22 3 -25 -26 -3 -35 -23 -42 -23 -8 0 11 -6 25 -13 32 -17 17 -15 39 6 54 23
18 29 17 36 -2z m322 -40 c-8 -32 -46 -34 -46 -2 0 12 8 30 17 40 15 17 18 17
26 3 5 -9 6 -27 3 -41z m558 24 c6 -26 -25 -65 -43 -54 -17 11 -13 47 7 62 24
19 29 17 36 -8z m-1450 3 c10 -15 -6 -71 -19 -71 -18 0 -28 49 -14 66 13 16
25 18 33 5z m66 -5 c0 -16 -18 -31 -27 -22 -8 8 5 36 17 36 5 0 10 -6 10 -14z
m1485 -6 c10 -16 -16 -43 -28 -31 -11 11 -2 41 12 41 5 0 13 -5 16 -10z m445
-24 c0 -14 -5 -28 -10 -31 -13 -8 -24 20 -16 40 9 24 26 17 26 -9z m-3836 5
c10 -16 -5 -41 -25 -41 -19 0 -27 29 -12 43 9 10 31 9 37 -2z m286 -17 c0 -8
-7 -14 -15 -14 -15 0 -21 21 -9 33 10 9 24 -2 24 -19z m57 10 c8 -21 -13 -42
-28 -27 -13 13 -5 43 11 43 6 0 13 -7 17 -16z m138 -9 c0 -11 -8 -21 -17 -23
-14 -3 -18 3 -18 23 0 20 4 26 18 23 9 -2 17 -12 17 -23z m-257 3 c-3 -7 -11
-13 -18 -13 -7 0 -15 6 -17 13 -3 7 4 12 17 12 13 0 20 -5 18 -12z m572 2 c0
-5 -5 -10 -11 -10 -5 0 -7 5 -4 10 3 6 8 10 11 10 2 0 4 -4 4 -10z m827 -16
c8 -21 -13 -42 -28 -27 -13 13 -5 43 11 43 6 0 13 -7 17 -16z m56 2 c7 -19
-18 -42 -28 -26 -8 13 1 40 14 40 5 0 11 -6 14 -14z m107 -7 c0 -5 -4 -9 -10
-9 -5 0 -10 7 -10 16 0 8 5 12 10 9 6 -3 10 -10 10 -16z m270 -5 c0 -8 -7 -14
-15 -14 -15 0 -21 21 -9 33 10 9 24 -2 24 -19z m150 -10 c0 -8 -5 -12 -10 -9
-6 4 -8 11 -5 16 9 14 15 11 15 -7z m520 -4 c0 -11 -7 -20 -15 -20 -17 0 -18
2 -9 24 9 23 24 20 24 -4z m556 -1 c8 -14 -11 -33 -25 -25 -11 7 -4 36 9 36 5
0 12 -5 16 -11z m110 0 c8 -14 -11 -33 -25 -25 -11 7 -4 36 9 36 5 0 12 -5 16
-11z m4619 -59 c0 -36 -29 -33 -33 3 -3 23 0 28 15 25 12 -2 18 -12 18 -28z
m-8816 -112 c-1 -52 -3 -66 -9 -48 -15 47 -11 120 7 120 2 0 3 -33 2 -72z
m4559 -110 c-3 -35 -28 -52 -28 -20 0 28 10 52 22 52 5 0 8 -14 6 -32z m-3
-108 c-3 -5 -10 -10 -16 -10 -5 0 -9 5 -9 10 0 6 7 10 16 10 8 0 12 -4 9 -10z
m-4561 -184 c-14 -282 -16 -292 -24 -111 -7 145 5 289 22 279 7 -4 7 -64 2
-168z m10716 147 c0 -10 -14 -26 -30 -35 -43 -24 -40 -50 4 -42 44 7 52 -7 22
-39 -24 -26 -18 -51 9 -41 7 3 16 1 19 -5 9 -14 -21 -71 -37 -72 -6 0 -22 -2
-34 -3 -14 -2 -29 8 -44 28 -21 28 -22 31 -5 59 13 23 14 33 5 44 -9 10 -9 20
2 41 8 15 18 30 24 35 6 4 5 10 -4 16 -22 14 -3 31 35 31 26 0 34 -4 34 -17z
m232 -46 c-2 -28 1 -54 9 -63 6 -8 9 -17 6 -21 -4 -3 1 -12 10 -18 15 -11 15
-13 -6 -24 -12 -7 -34 -11 -49 -9 -25 3 -27 7 -28 48 0 25 4 51 9 57 5 7 7 20
3 29 -8 22 12 56 32 52 14 -3 16 -13 14 -51z m-797 33 c3 -5 -1 -10 -9 -10 -8
0 -18 5 -21 10 -3 6 1 10 9 10 8 0 18 -4 21 -10z m1029 -6 c9 -22 -3 -32 -14
-14 -8 13 -10 13 -10 1 0 -8 -2 -12 -5 -9 -7 7 5 38 15 38 4 0 11 -7 14 -16z
m-6925 -38 c7 -8 9 -25 6 -39 -5 -19 -2 -27 12 -31 14 -5 18 -16 18 -57 0 -44
-4 -54 -28 -74 -26 -20 -27 -23 -10 -27 22 -6 28 -44 8 -52 -18 -6 -9 -36 21
-71 14 -16 22 -35 20 -42 -3 -7 -1 -15 5 -19 17 -10 -11 -34 -39 -34 -14 0
-35 -8 -46 -19 -24 -21 -72 -39 -62 -23 7 11 1 13 -84 33 -51 12 -102 39 -72
39 19 0 14 25 -8 45 -22 20 -18 35 11 35 21 0 25 20 7 38 -9 9 -8 12 8 12 26
0 68 56 59 78 -11 26 -12 76 -2 89 5 7 4 20 -2 32 -15 28 -14 56 5 71 32 27
155 38 173 16z m6961 -21 c0 -8 -7 -15 -15 -15 -16 0 -20 12 -8 23 11 12 23 8
23 -8z m-1062 -11 c-9 -9 -21 -13 -27 -9 -16 10 -3 25 22 25 20 0 20 -1 5 -16z
m1025 -34 c-6 -23 -8 -24 -35 -9 -17 9 -18 13 -7 20 26 16 48 11 42 -11z
m-11064 -88 c11 -32 12 -45 3 -54 -12 -12 -23 8 -37 71 -10 49 14 36 34 -17z
m10825 -33 c-7 -12 -51 -12 -59 0 -3 5 5 11 17 13 29 5 49 -2 42 -13z m-14556
-146 c4 -36 -13 -45 -23 -14 -3 11 -12 22 -20 25 -26 9 -16 27 13 24 22 -2 28
-8 30 -35z m200 17 c28 -7 52 -16 52 -21 0 -6 -5 -7 -10 -4 -6 4 -23 9 -38 11
l-27 5 28 -29 c35 -36 24 -47 -39 -37 -29 4 -48 13 -55 27 -7 13 -17 18 -30
15 -19 -5 -49 15 -49 33 0 10 63 19 95 14 11 -2 44 -8 73 -14z m7712 10 c0 -5
-7 -10 -15 -10 -8 0 -15 5 -15 10 0 6 7 10 15 10 8 0 15 -4 15 -10z m-6792
-12 c-5 -15 -58 -24 -58 -9 0 11 17 19 43 20 11 1 17 -4 15 -11z m292 2 c0 -5
-4 -10 -9 -10 -6 0 -13 5 -16 10 -3 6 1 10 9 10 9 0 16 -4 16 -10z m-125 -20
c3 -5 -3 -10 -15 -10 -12 0 -18 5 -15 10 3 6 10 10 15 10 5 0 12 -4 15 -10z
m35 0 c0 -5 -5 -10 -11 -10 -5 0 -7 5 -4 10 3 6 8 10 11 10 2 0 4 -4 4 -10z
m-87 -7 c-7 -2 -19 -2 -25 0 -7 3 -2 5 12 5 14 0 19 -2 13 -5z m2380 -141 c5
-7 6 -20 3 -29 -6 -14 -9 -13 -23 7 -12 16 -16 41 -14 84 4 85 15 94 21 16 3
-36 9 -71 13 -78z m-2558 -22 c-11 -5 -29 -9 -40 -9 -17 -1 -17 1 -5 9 8 5 26
9 40 9 23 0 23 -1 5 -9z m135 -10 c0 -5 -22 -10 -50 -10 -27 0 -50 5 -50 10 0
6 23 10 50 10 28 0 50 -4 50 -10z"/>
<path d="M8419 5620 c-17 -28 -35 -50 -40 -50 -6 0 7 -20 27 -45 21 -24 40
-42 43 -40 2 3 -1 11 -7 17 -19 19 -14 60 13 103 29 47 30 51 10 59 -11 4 -25
-10 -46 -44z"/>
<path d="M8564 5613 c4 -21 8 -55 11 -77 8 -65 13 -51 10 26 -4 93 -3 88 -16
88 -7 0 -9 -13 -5 -37z"/>
<path d="M8792 5625 c3 -3 14 -8 25 -9 11 -2 22 -17 29 -42 l11 -39 12 38 c9
26 18 37 27 33 8 -3 14 -1 14 4 0 6 -3 10 -7 10 -5 0 -33 3 -63 6 -30 4 -52 3
-48 -1z"/>
<path d="M9015 5488 c3 -62 10 -117 15 -122 5 -4 15 5 24 22 21 41 51 38 71
-5 9 -18 20 -33 24 -33 9 0 11 160 2 175 -6 11 -7 17 -9 53 -2 15 -8 22 -22
22 -20 0 -28 -15 -11 -22 5 -1 11 -32 13 -68 3 -70 -5 -79 -57 -66 -19 5 -23
14 -27 57 -7 72 -1 92 28 86 13 -2 24 0 24 4 0 5 -19 9 -41 9 l-41 0 7 -112z"/>
<path d="M8967 5555 c-4 -8 -18 -15 -32 -15 -22 0 -25 -4 -25 -34 0 -18 7 -49
15 -67 15 -34 48 -79 59 -79 5 0 -3 201 -9 208 -1 2 -5 -4 -8 -13z"/>
<path d="M8353 5509 c-1 -10 2 -19 8 -19 11 0 12 27 1 34 -4 2 -9 -4 -9 -15z"/>
<path d="M9065 5520 c-7 -12 2 -30 16 -30 5 0 9 9 9 20 0 21 -15 27 -25 10z"/>
<path d="M8362 5455 c0 -16 2 -22 5 -12 2 9 2 23 0 30 -3 6 -5 -1 -5 -18z"/>
<path d="M8580 5447 c0 -14 5 -29 10 -32 7 -4 8 3 4 22 -9 38 -14 42 -14 10z"/>
<path d="M8850 5443 c0 -18 5 -33 10 -33 13 0 13 30 0 50 -7 11 -10 7 -10 -17z"/>
<path d="M9417 5443 c2 -133 1 -123 12 -123 6 0 11 19 13 43 3 46 15 54 32 22
35 -66 59 -96 67 -88 6 6 -2 32 -20 69 l-30 59 29 52 c35 62 35 63 11 63 -10
0 -30 -17 -45 -40 -14 -22 -31 -40 -36 -40 -8 0 -16 55 -11 83 0 4 -5 7 -11 7
-10 0 -13 -27 -11 -107z"/>
<path d="M9626 5504 c-9 -24 -7 -234 2 -234 5 0 14 11 20 25 6 14 15 25 19 26
5 0 16 2 26 4 9 2 22 -5 27 -16 10 -19 11 -19 40 3 26 19 30 28 30 72 0 27 -3
47 -6 43 -3 -3 -6 -22 -6 -41 0 -23 -5 -36 -13 -36 -10 0 -14 18 -14 66 0 37
-5 72 -10 77 -6 6 -11 8 -11 4 0 -3 -11 -2 -25 3 -14 5 -25 7 -25 5 0 -3 11
-10 25 -15 25 -9 26 -13 23 -72 l-3 -63 -33 2 c-18 0 -35 3 -37 5 -11 11 -7
131 4 138 9 5 8 9 -4 14 -22 8 -22 8 -29 -10z"/>
<path d="M9781 5454 c0 -11 3 -14 6 -6 3 7 2 16 -1 19 -3 4 -6 -2 -5 -13z"/>
<path d="M9819 5468 c-6 -21 -6 -118 0 -168 5 -36 9 -53 10 -38 1 33 18 78 29
78 4 0 14 -15 21 -32 11 -26 15 -29 18 -15 3 10 16 22 30 28 23 9 25 13 20 65
-5 52 -16 84 -18 53 -1 -8 -2 -18 -4 -24 -1 -5 -3 -22 -3 -37 -2 -25 -6 -28
-36 -28 -19 0 -37 4 -40 9 -9 14 -10 74 -2 94 6 12 4 17 -8 17 -9 0 -16 -1
-17 -2z"/>
<path d="M9674 5424 c3 -9 6 -18 6 -20 0 -2 5 -4 10 -4 6 0 10 9 10 20 0 12
-7 20 -16 20 -11 0 -14 -5 -10 -16z"/>
<path d="M10015 5420 c3 -5 12 -10 19 -10 19 0 26 -32 26 -114 0 -87 10 -80
17 11 3 37 10 74 15 81 13 15 12 16 -31 31 -42 14 -54 14 -46 1z"/>
<path d="M10114 5315 c-12 -29 2 -35 24 -11 21 25 21 26 2 26 -12 0 -23 -7
-26 -15z"/>
<path d="M10399 5272 c-6 -52 5 -64 20 -22 5 17 6 30 1 30 -5 0 -10 8 -12 18
-3 9 -6 -2 -9 -26z"/>
<path d="M10490 5269 c0 -5 5 -7 10 -4 6 3 10 8 10 11 0 2 -4 4 -10 4 -5 0
-10 -5 -10 -11z"/>
<path d="M9903 5257 c4 -10 7 -23 7 -28 0 -5 5 -9 10 -9 15 0 12 20 -7 38 -16
16 -16 16 -10 -1z"/>
<path d="M10197 5200 c-3 -11 -1 -22 3 -25 11 -7 32 30 23 39 -11 11 -21 6
-26 -14z"/>
<path d="M10297 5213 c-3 -5 -1 -17 4 -28 7 -17 8 -17 8 8 1 27 -4 34 -12 20z"/>
<path d="M10760 5123 c0 -43 -3 -87 -6 -99 -4 -17 2 -24 29 -37 51 -24 66 -21
26 6 -32 21 -34 26 -37 86 -1 44 2 71 13 87 20 30 19 34 -5 34 -18 0 -20 -7
-20 -77z"/>
<path d="M10397 5153 c-11 -10 -8 -43 3 -43 6 0 10 11 10 25 0 26 -2 29 -13
18z"/>
<path d="M10940 5125 c-6 -16 -9 -38 -7 -49 2 -15 7 -8 16 23 14 49 7 69 -9
26z"/>
<path d="M10799 5105 c-1 -14 -2 -32 -3 -42 0 -9 4 -18 10 -20 6 -2 11 8 11
24 0 15 3 36 7 46 6 12 4 17 -8 17 -10 0 -16 -9 -17 -25z"/>
<path d="M11030 5078 c0 -69 -9 -91 -34 -84 -70 20 -66 21 -66 -18 0 -40 13
-47 30 -16 15 29 48 26 56 -5 8 -33 24 -32 24 3 0 15 3 57 7 95 4 47 3 67 -6
67 -6 0 -11 -17 -11 -42z"/>
<path d="M11106 5048 c-9 -43 -2 -45 11 -3 6 19 8 35 3 35 -4 0 -10 -14 -14
-32z"/>
<path d="M10980 5060 c0 -5 5 -10 10 -10 6 0 10 5 10 10 0 6 -4 10 -10 10 -5
0 -10 -4 -10 -10z"/>
<path d="M11200 5015 c-5 -48 -6 -50 -32 -47 -28 3 -37 -14 -19 -33 5 -6 14
-27 21 -47 6 -21 18 -38 26 -38 18 0 18 3 -6 30 -22 25 -23 67 -2 62 18 -3 24
18 20 74 l-4 49 -4 -50z"/>
<path d="M11277 5023 c-11 -18 -19 -143 -10 -143 6 0 13 33 16 73 5 71 4 86
-6 70z"/>
<path d="M11360 4998 c-1 -2 -3 -28 -5 -58 -2 -30 -8 -56 -13 -58 -5 -1 -18
-9 -28 -17 -18 -14 -18 -14 3 -15 16 0 25 -8 29 -25 12 -48 22 -14 23 80 1 52
-1 95 -4 95 -3 0 -5 -1 -5 -2z"/>
<path d="M11103 4955 c0 -20 2 -23 13 -14 8 6 14 18 14 25 0 8 -6 14 -14 14
-8 0 -13 -10 -13 -25z"/>
<path d="M11310 4940 c0 -5 5 -10 10 -10 6 0 10 5 10 10 0 6 -4 10 -10 10 -5
0 -10 -4 -10 -10z"/>
<path d="M11217 4894 c-8 -8 1 -24 14 -24 5 0 9 7 9 15 0 15 -12 20 -23 9z"/>
<path d="M330 190 c0 -5 4 -10 9 -10 6 0 13 5 16 10 3 6 -1 10 -9 10 -9 0 -16
-4 -16 -10z"/>
<path d="M15100 2335 c-10 -12 -10 -15 4 -15 9 0 16 7 16 15 0 8 -2 15 -4 15
-2 0 -9 -7 -16 -15z"/>
<path d="M14986 2303 c-17 -5 -18 -14 -10 -181 5 -98 8 -242 6 -322 -3 -156 4
-164 33 -40 10 41 37 137 61 213 40 124 44 147 44 237 l0 100 -57 -1 c-32 -1
-66 -3 -77 -6z"/>
</g>
</svg>
